<?xml version="1.0" encoding="UTF-8" standalone="no"?>
<!-- Created with Inkscape (http://www.inkscape.org/) -->

<svg
   version="1.1"
   id="svg2"
   xml:space="preserve"
   width="3795.8"
   height="2666.6667"
   viewBox="0 0 3795.8 2666.6667"
   sodipodi:docname="Black_Pinstripe_V.eps"
   xmlns:inkscape="http://www.inkscape.org/namespaces/inkscape"
   xmlns:sodipodi="http://sodipodi.sourceforge.net/DTD/sodipodi-0.dtd"
   xmlns="http://www.w3.org/2000/svg"
   xmlns:svg="http://www.w3.org/2000/svg"><defs
     id="defs6" /><sodipodi:namedview
     id="namedview4"
     pagecolor="#ffffff"
     bordercolor="#666666"
     borderopacity="1.0"
     inkscape:pageshadow="2"
     inkscape:pageopacity="0.0"
     inkscape:pagecheckerboard="0" /><g
     id="g8"
     inkscape:groupmode="layer"
     inkscape:label="ink_ext_XXXXXX"
     transform="matrix(1.3333333,0,0,-1.3333333,0,2666.6667)"><g
       id="g10"
       transform="scale(0.1)"><path
         d="M 24537.1,16198.2 17427.2,1080 h -6385 L 3931.83,16198.2 c -591.24,1272.2 -1049.18,2041.4 -1581.66,2721.9 h 7036.01 c -561.77,-769.2 -576.55,-1849.1 206.94,-3505.9 l 4641.28,-9881.4 4641.4,9881.6 c 783.4,1656.8 768.6,2736.7 206.9,3505.9 h 7035.9 c -532.1,-680.7 -990.3,-1449.9 -1581.5,-2722.1 z M 16954.2,20000 v -221.9 c 1670.3,-932 1744.2,-2174.6 931.3,-3905.3 l -3651.1,-7766.2 -3650.9,7766.1 c -813.03,1730.7 -739.48,2973.3 931.1,3905.3 v 221.9 H 0 V 19778 c 1138.11,-769.2 1744.14,-1479.3 2837.78,-3801.8 L 10346.7,0 h 7775.1 l 7508.9,15976.2 c 1093.8,2322.5 1699.8,3032.6 2837.8,3801.8 v 221.9 l -11514.3,0.1"
         style="fill:#231f20;fill-opacity:1;fill-rule:nonzero;stroke:none"
         id="path12" /><path
         d="M 11295.3,1480 4293.63,16368.1 c -418.57,900.6 -779.99,1572.6 -1163.29,2152 h 5598.83 c -110.91,-317.6 -158.97,-664.2 -143.29,-1036.9 26.98,-645.2 238.21,-1377.9 645.69,-2240 L 14234.4,4592 19237.8,15243.5 c 407.4,861.8 618.7,1594.5 645.7,2240 15.6,372.7 -32.5,719.3 -143.3,1036.9 H 25339 c -383.3,-579.4 -744.7,-1251.4 -1163.3,-2152 L 17174.1,1480.3 11295.3,1480"
         style="fill:#231f20;fill-opacity:1;fill-rule:nonzero;stroke:none"
         id="path14" /></g></g></svg>
