<svg version="1.1" id="Layer_1" xmlns="http://www.w3.org/2000/svg" xmlns:xlink="http://www.w3.org/1999/xlink" x="0px" y="0px"
	 width="100%" viewBox="0 0 2794 2001" enable-background="new 0 0 2794 2001" xml:space="preserve">
<path fill="#000000" opacity="1.000000" stroke="none" 
	d="
M1068.000000,2004.000000 
	C712.763855,2004.000000 357.527679,2004.000000 2.000000,2004.000000 
	C2.000000,1345.943970 2.000000,687.887878 2.712981,28.711222 
	C5.192361,28.426699 7.110721,29.040915 8.702817,30.131449 
	C43.691998,54.097954 77.834785,79.191177 109.833794,107.078484 
	C122.059158,117.732956 133.975052,128.742523 146.317627,140.211334 
	C174.057663,168.376846 199.478424,197.674698 221.449158,229.788391 
	C235.991562,251.044388 249.700256,272.870789 263.905273,295.124512 
	C292.016449,344.183380 316.333313,394.411041 339.636475,445.164551 
	C349.379486,466.384491 359.722168,487.329102 369.852142,509.109985 
	C382.854858,537.491028 395.815247,565.152710 408.735901,592.833008 
	C424.045654,625.631531 439.243988,658.482300 454.642365,691.239136 
	C462.942657,708.896240 471.559875,726.404419 480.093292,744.702148 
	C492.536438,771.883911 504.940704,798.333862 517.299194,824.805054 
	C532.890137,858.200012 548.416504,891.625000 564.022461,925.012939 
	C575.398315,949.351013 586.857849,973.649963 598.308716,998.668640 
	C601.194641,1004.983154 604.214661,1010.519226 606.883362,1016.219727 
	C627.679810,1060.642822 648.433411,1105.085938 669.149658,1149.546509 
	C682.253113,1177.668823 695.269897,1205.831299 708.368408,1234.677856 
	C710.970642,1240.369507 713.686646,1245.285645 716.065002,1250.360107 
	C738.217529,1297.624878 760.275635,1344.934082 782.434143,1392.196167 
	C803.464905,1437.052856 824.634705,1481.844360 845.649170,1526.708618 
	C868.917603,1576.385010 892.058533,1626.121094 915.293274,1675.813232 
	C935.432007,1718.884033 955.644104,1761.920288 975.788025,1804.988647 
	C999.451843,1855.583130 1023.125793,1906.172729 1046.690063,1956.813599 
	C1053.970581,1972.459839 1060.906372,1988.266724 1068.000000,2004.000000 
z"/>
<path fill="#000000" opacity="1.000000" stroke="none" 
	d="
M2796.000000,28.000000 
	C2796.000000,686.486267 2796.000000,1344.972534 2796.000000,2004.000000 
	C2442.610840,2004.000000 2089.221191,2004.000000 1734.947144,2003.270020 
	C1736.533081,1997.119141 1738.962158,1991.678833 1741.480957,1986.280273 
	C1762.630981,1940.949829 1783.825684,1895.640259 1804.944946,1850.295532 
	C1813.049683,1832.893799 1820.993652,1815.417236 1829.388672,1797.332275 
	C1846.718384,1760.572144 1863.674438,1724.456543 1880.620972,1688.336426 
	C1898.838501,1649.507446 1917.100464,1610.699219 1935.233887,1571.831177 
	C1942.954102,1555.283325 1950.397461,1538.606201 1958.463623,1521.495361 
	C1969.756836,1497.841919 1980.513916,1474.662476 1991.358765,1451.524170 
	C2007.281860,1417.550903 2023.308472,1383.626099 2039.217285,1349.645996 
	C2059.907227,1305.453125 2080.573730,1261.249268 2101.145996,1217.001465 
	C2107.855225,1202.570923 2114.237305,1187.988281 2121.271729,1172.947021 
	C2131.656006,1151.411377 2141.542236,1130.406128 2151.418213,1109.395996 
	C2169.479004,1070.974365 2187.584961,1032.573975 2205.577637,994.120483 
	C2226.659180,949.065247 2247.673828,903.978577 2268.631104,858.865356 
	C2272.103027,851.391174 2275.133545,843.712036 2278.906982,835.700073 
	C2285.091797,823.265930 2290.733154,811.257202 2296.385254,799.253357 
	C2312.208008,765.650391 2328.095459,732.077576 2343.845703,698.440674 
	C2364.801514,653.686035 2385.692627,608.901001 2406.527344,564.089722 
	C2413.927490,548.173096 2421.079346,532.140991 2428.885254,515.733215 
	C2431.966064,509.884705 2434.514893,504.468658 2437.044678,499.043823 
	C2463.021240,443.343567 2488.168457,387.244659 2517.128906,332.981659 
	C2538.910889,292.168823 2562.690674,252.606857 2590.588379,215.633713 
	C2600.159180,202.949295 2610.048828,190.505173 2620.365723,177.595093 
	C2621.877686,176.298767 2622.878174,175.411835 2623.747314,174.410782 
	C2647.058838,147.561554 2672.756836,123.186417 2699.887207,100.236664 
	C2730.544678,74.303185 2763.139648,50.983570 2796.000000,28.000000 
z"/>
<path fill="#000000" opacity="1.000000" stroke="none" 
	d="
M1084.000000,2.000000 
	C1294.709595,2.000000 1505.419067,2.000000 1717.194580,2.915380 
	C1718.260620,11.433894 1718.260620,19.037027 1718.260620,26.889353 
	C1759.757080,50.832230 1798.107300,78.144676 1828.220459,116.425728 
	C1841.807983,135.024338 1851.723755,154.710846 1857.953125,176.224106 
	C1864.164062,197.672760 1865.898071,219.670349 1865.514771,242.122314 
	C1864.914062,242.836227 1864.895630,243.318771 1864.817261,244.676834 
	C1863.957275,263.388794 1860.486572,280.788605 1856.480103,298.103058 
	C1854.186035,308.017487 1851.809814,317.912842 1848.978027,328.341248 
	C1843.506226,342.969360 1839.404175,357.459839 1833.387207,371.105988 
	C1813.369385,416.506134 1792.688110,461.614075 1772.210327,506.811005 
	C1762.753418,527.683594 1753.178955,548.503052 1743.100342,569.799194 
	C1723.717896,610.429993 1704.805542,650.567627 1686.105713,690.804016 
	C1677.074707,710.236023 1668.443237,729.853699 1659.088135,749.852661 
	C1640.658203,788.718811 1622.765869,827.117371 1604.884888,865.521179 
	C1590.219482,897.018250 1575.567627,928.521606 1560.465820,960.508057 
	C1556.481689,968.783630 1553.010010,976.605164 1549.389282,984.357117 
	C1537.064941,1010.743591 1524.648071,1037.086670 1512.340820,1063.480957 
	C1491.821167,1107.487061 1471.306885,1151.495728 1450.897217,1195.552856 
	C1442.237061,1214.247070 1433.847534,1233.066528 1424.832642,1252.278809 
	C1420.709473,1260.482300 1417.228882,1268.305786 1413.430420,1275.971802 
	C1409.220215,1284.468750 1404.719482,1292.822021 1400.147827,1300.579834 
	C1393.171509,1285.590454 1386.437500,1271.237671 1379.600464,1256.934082 
	C1373.345337,1243.847534 1366.978760,1230.814331 1360.510620,1217.032104 
	C1359.204590,1213.555054 1358.141357,1210.760376 1356.880127,1208.058228 
	C1330.370605,1151.264160 1303.868896,1094.466431 1277.263062,1037.717529 
	C1274.658203,1032.161499 1271.247559,1026.988647 1268.462646,1021.509949 
	C1265.968994,1016.604614 1263.822876,1011.522644 1261.042480,1005.994873 
	C1256.578735,996.197388 1252.844971,986.806763 1248.555176,977.677307 
	C1242.082642,963.902954 1234.902588,950.456238 1228.604492,936.606018 
	C1219.991699,917.665039 1212.234619,898.333679 1203.557617,879.423340 
	C1185.844971,840.820801 1167.838257,802.352356 1149.792603,763.903748 
	C1143.473145,750.439270 1136.684082,737.195190 1130.045532,723.130066 
	C1120.396729,701.618958 1110.867432,680.802429 1101.214600,660.043274 
	C1084.008911,623.041443 1066.710938,586.082520 1049.484985,549.090088 
	C1036.748291,521.738525 1024.126221,494.333557 1011.337524,467.006409 
	C1001.091919,445.113403 990.672729,423.301605 980.252930,400.738556 
	C971.222778,376.095551 961.271423,352.484955 953.548584,328.166626 
	C941.565735,290.433777 933.983215,251.996460 937.441345,211.814301 
	C941.317383,166.776733 960.150574,129.173386 990.553162,96.659210 
	C1006.204712,79.920670 1023.989929,65.573311 1042.544434,52.308544 
	C1055.115356,43.321476 1068.747925,35.819141 1082.375488,27.607136 
	C1083.517944,27.142698 1083.647217,26.595615 1083.425171,25.022045 
	C1083.744751,16.749241 1083.872314,9.374620 1084.000000,2.000000 
z"/>
<path fill="#B49248" opacity="1.000000" stroke="none" 
	d="
M1068.937256,2004.000000 
	C1060.906372,1988.266724 1053.970581,1972.459839 1046.690063,1956.813599 
	C1023.125793,1906.172729 999.451843,1855.583130 975.788025,1804.988647 
	C955.644104,1761.920288 935.432007,1718.884033 915.293274,1675.813232 
	C892.058533,1626.121094 868.917603,1576.385010 845.649170,1526.708618 
	C824.634705,1481.844360 803.464905,1437.052856 782.434143,1392.196167 
	C760.275635,1344.934082 738.217529,1297.624878 716.065002,1250.360107 
	C713.686646,1245.285645 710.970642,1240.369507 709.067139,1234.534668 
	C710.930237,1232.634033 712.790161,1231.799927 713.235596,1230.486206 
	C715.582031,1223.565796 717.376892,1216.458252 719.730530,1209.540527 
	C723.227112,1199.263916 726.467468,1188.840576 730.873291,1178.950317 
	C734.783508,1170.172852 739.580933,1161.861450 741.005859,1152.133423 
	C742.213989,1143.885132 744.237122,1135.927856 749.109009,1128.806641 
	C750.883362,1126.213013 751.054321,1122.525269 751.971069,1119.340942 
	C752.700256,1116.808228 753.281677,1114.217041 754.220520,1111.763550 
	C759.294739,1098.501709 764.506653,1085.292358 769.572021,1072.027222 
	C771.791565,1066.214844 773.913635,1060.357422 775.842224,1054.442993 
	C782.008606,1035.532593 787.810730,1016.499451 794.244690,997.681641 
	C799.050903,983.624512 806.222473,970.505188 809.951782,955.929260 
	C812.990173,944.053528 817.912537,932.660400 821.985229,921.048340 
	C825.489441,911.057190 828.468689,900.846619 832.567261,891.106384 
	C842.383118,867.778992 849.492798,843.622375 856.384338,819.330811 
	C858.534424,811.752014 860.146423,802.683411 870.457825,800.530518 
	C875.303772,810.696838 879.666138,820.341492 884.063965,830.741455 
	C884.930786,834.005737 885.516357,836.630737 886.637512,839.002747 
	C890.605286,847.397522 895.040833,855.580078 898.789490,864.068176 
	C917.338684,906.069092 935.691956,948.156555 954.177979,990.185486 
	C971.450867,1029.456421 988.803772,1068.692017 1006.344360,1108.614014 
	C1008.020264,1112.277466 1009.574829,1115.225830 1010.910339,1118.270264 
	C1022.121765,1143.828369 1033.268066,1169.414917 1044.482666,1194.971558 
	C1058.503174,1226.922852 1072.472900,1258.896851 1086.670898,1290.769165 
	C1091.389526,1301.362183 1096.744629,1311.671631 1101.866699,1322.860840 
	C1102.949951,1326.406616 1103.824585,1329.268921 1105.026001,1331.986450 
	C1110.945190,1345.375244 1117.009521,1358.699829 1122.914185,1372.094849 
	C1137.132812,1404.349976 1151.296143,1436.629517 1165.471191,1468.903931 
	C1174.566895,1489.612793 1183.620117,1510.340088 1192.736084,1531.039795 
	C1203.190186,1554.778320 1213.668213,1578.506470 1224.217773,1602.202759 
	C1225.145874,1604.287476 1226.681885,1606.101562 1227.971069,1608.791626 
	C1234.560669,1624.791992 1241.024780,1640.081665 1247.691162,1655.282593 
	C1256.239746,1674.775513 1264.943359,1694.200439 1273.594238,1713.648438 
	C1283.729614,1736.433105 1293.880005,1759.211182 1304.121338,1782.713623 
	C1312.638672,1802.597290 1321.020996,1821.776001 1329.488403,1840.917236 
	C1338.092285,1860.366943 1346.761719,1879.787720 1355.435425,1899.206543 
	C1366.275879,1923.475952 1377.150024,1947.730347 1388.111816,1972.718872 
	C1391.424927,1981.062256 1394.516968,1988.732056 1397.945435,1996.248413 
	C1398.650146,1997.793335 1400.612427,1998.764526 1401.993286,2000.666626 
	C1401.994385,2002.222168 1401.997192,2003.111084 1402.000000,2004.000000 
	C1291.291504,2004.000000 1180.583130,2004.000000 1068.937256,2004.000000 
z"/>
<path fill="#EBD69A" opacity="1.000000" stroke="none" 
	d="
M1081.905640,27.652796 
	C1068.747925,35.819141 1055.115356,43.321476 1042.544434,52.308544 
	C1023.989929,65.573311 1006.204712,79.920670 990.553162,96.659210 
	C960.150574,129.173386 941.317383,166.776733 937.441345,211.814301 
	C933.983215,251.996460 941.565735,290.433777 953.548584,328.166626 
	C961.271423,352.484955 971.222778,376.095551 979.696045,401.298828 
	C970.708740,404.173553 962.735657,406.841858 955.501343,411.962860 
	C952.397644,414.159821 948.145996,415.219910 944.273987,415.740662 
	C937.354980,416.671234 931.666809,419.579254 926.674683,424.254913 
	C925.476257,425.377350 924.159424,426.909882 922.715515,427.146851 
	C912.946594,428.749939 905.761475,435.819855 896.947571,439.115662 
	C887.540283,442.633331 877.535889,444.524292 868.717651,449.718628 
	C867.702576,450.316589 866.105286,449.932343 864.777405,449.991974 
	C858.636230,450.267761 853.039734,451.775696 848.508118,456.348480 
	C847.201416,457.667023 845.229675,459.046417 843.511414,459.115448 
	C835.027954,459.456177 827.866516,462.245422 820.999451,467.488007 
	C815.363647,471.790558 808.622620,476.281464 801.904541,477.173889 
	C789.658142,478.800720 781.492310,489.595184 769.128723,489.983704 
	C768.567627,490.001343 768.057007,490.741547 767.473206,491.051788 
	C758.125427,496.019287 748.218628,497.760345 737.196594,495.732300 
	C735.724182,493.564697 734.681580,491.876099 733.883545,490.078918 
	C722.831299,465.188751 711.778015,440.298920 700.795471,415.377960 
	C689.680664,390.157074 678.836060,364.815094 667.500305,339.694397 
	C660.819580,324.889648 653.414246,310.411835 646.275330,295.020416 
	C645.566101,291.701111 645.251343,289.002014 644.210876,286.619965 
	C638.497559,273.539825 632.602966,260.538940 626.777283,247.507843 
	C615.401855,222.062714 603.945862,196.653137 592.679565,171.159729 
	C578.595825,139.290939 564.701904,107.338287 550.652527,75.454239 
	C547.188477,67.592888 543.440063,59.856842 539.584045,51.389126 
	C534.756592,39.725216 530.080139,28.770674 525.616882,17.729942 
	C523.531982,12.572572 521.859497,7.248501 520.000000,1.999998 
	C707.375122,2.000000 894.750244,2.000000 1083.062744,2.000000 
	C1083.872314,9.374620 1083.744751,16.749241 1083.056885,25.168079 
	C1082.110596,26.614853 1081.913574,27.095018 1081.905640,27.652796 
z"/>
<path fill="#F3E0A5" opacity="1.000000" stroke="none" 
	d="
M2796.000000,27.046677 
	C2763.139648,50.983570 2730.544678,74.303185 2699.887207,100.236664 
	C2672.756836,123.186417 2647.058838,147.561554 2623.747314,174.410782 
	C2622.878174,175.411835 2621.877686,176.298767 2619.565918,177.594421 
	C2615.029297,178.701736 2611.816895,179.294693 2608.709717,180.234207 
	C2598.009277,183.469620 2588.298584,189.464752 2576.734131,190.486359 
	C2569.546875,191.121292 2562.125977,192.731674 2555.527588,195.571701 
	C2545.493652,199.890503 2534.887695,200.071838 2524.532715,202.092880 
	C2518.797852,203.212158 2513.245361,205.285477 2507.630127,206.992691 
	C2500.060791,209.293991 2492.555664,211.819595 2484.936035,213.936249 
	C2479.867676,215.344147 2474.612305,216.064117 2469.503662,217.343719 
	C2461.019287,219.468872 2453.383545,225.454971 2443.844238,222.845428 
	C2443.024414,222.621216 2441.950684,223.291885 2441.002930,223.573242 
	C2425.222412,228.257553 2409.885986,234.199432 2393.598877,237.497650 
	C2379.826172,240.286652 2366.597656,245.743942 2353.105469,249.946732 
	C2347.126221,251.809174 2341.283936,253.924225 2334.664551,252.372192 
	C2332.065186,251.762787 2328.889893,253.187347 2326.070801,254.008087 
	C2310.804199,258.452728 2295.601807,263.122650 2280.296387,267.426331 
	C2276.201416,268.577759 2271.083008,267.504303 2267.715332,269.555176 
	C2258.593262,275.109985 2248.010254,274.530731 2238.394287,277.868317 
	C2229.369385,281.000671 2219.670410,282.135712 2210.500000,284.914917 
	C2196.546143,289.143616 2182.839600,294.180725 2168.934814,298.580566 
	C2161.678467,300.876801 2160.058105,299.443176 2159.303711,291.676208 
	C2159.179688,290.400299 2158.426025,289.185516 2158.084229,287.217957 
	C2160.922363,280.094818 2163.636719,273.694824 2166.358154,267.297974 
	C2173.611328,250.248657 2180.867676,233.200684 2188.629883,215.666748 
	C2202.475098,185.240860 2215.876221,155.328262 2229.134766,125.352608 
	C2243.621094,92.601326 2258.050537,59.824371 2272.333740,26.984362 
	C2275.892578,18.802633 2278.795410,10.335723 2282.000000,1.999972 
	C2453.333252,2.000000 2624.666748,2.000000 2796.000000,2.000000 
	C2796.000000,10.120283 2796.000000,18.106817 2796.000000,27.046677 
z"/>
<path fill="#D4BA78" opacity="1.000000" stroke="none" 
	d="
M519.062683,1.999998 
	C521.859497,7.248501 523.531982,12.572572 525.616882,17.729942 
	C530.080139,28.770674 534.756592,39.725216 538.806396,51.379360 
	C534.938477,51.978062 532.948303,52.966728 531.930725,56.754566 
	C529.121643,67.211548 527.402283,77.861076 522.707703,87.963730 
	C517.028442,100.185280 513.639526,113.455200 508.950256,126.157288 
	C504.358795,138.594528 499.138123,150.801422 494.636810,163.269440 
	C490.153168,175.688614 486.286621,188.329285 482.014557,200.826706 
	C480.197357,206.142685 477.801636,211.265701 476.083893,216.609833 
	C473.042908,226.070862 470.674164,235.759613 467.359070,245.117477 
	C464.276581,253.818802 459.914917,262.069183 456.874969,270.782745 
	C453.828735,279.514282 451.947540,288.645691 449.124817,297.463928 
	C447.122284,303.719940 444.317902,309.714874 442.024231,315.883118 
	C438.247009,326.041016 434.514404,336.217163 430.920380,346.440948 
	C429.059875,351.733429 427.614410,357.170746 425.820221,362.488281 
	C425.199707,364.327271 423.923615,365.938751 423.239441,367.763794 
	C421.411774,372.639130 419.610840,377.532623 418.056030,382.499298 
	C416.980896,385.933655 416.648956,389.614960 415.439667,392.990601 
	C409.754578,408.860626 401.042786,423.563324 397.526123,440.296417 
	C396.240021,446.415955 394.293610,452.443298 392.132111,458.322876 
	C387.128357,471.934052 381.995880,485.505890 376.491394,498.919556 
	C375.059753,502.408234 372.067627,505.256500 369.792206,508.398895 
	C359.722168,487.329102 349.379486,466.384491 339.636475,445.164551 
	C316.333313,394.411041 292.016449,344.183380 264.328125,294.551270 
	C267.577759,289.001465 272.238708,285.045898 273.166656,280.352295 
	C276.348419,264.258484 283.385834,249.634903 288.925262,234.445923 
	C291.303070,227.926086 294.489655,221.678925 296.557922,215.072800 
	C301.886597,198.052765 304.446136,180.102570 314.460510,164.691040 
	C316.381012,161.735565 316.929016,157.851303 317.932922,154.344788 
	C320.117554,146.713806 321.074951,138.505890 324.502625,131.496445 
	C337.540985,104.833481 342.809448,75.407341 354.818542,48.424519 
	C355.087830,47.819542 355.251129,47.167385 355.463776,46.537205 
	C358.730988,36.853901 361.504822,26.963129 365.455688,17.567297 
	C367.722595,12.176289 368.289337,8.267877 363.078491,4.712757 
	C362.412201,4.258167 362.344818,2.925762 362.000000,2.000002 
	C414.041779,2.000000 466.083588,2.000000 519.062683,1.999998 
z"/>
<path fill="#D4BA78" opacity="1.000000" stroke="none" 
	d="
M2281.062988,1.999972 
	C2278.795410,10.335723 2275.892578,18.802633 2272.333740,26.984362 
	C2258.050537,59.824371 2243.621094,92.601326 2229.134766,125.352608 
	C2215.876221,155.328262 2202.475098,185.240860 2188.233154,215.039642 
	C2180.200439,210.975388 2178.618896,210.990967 2173.378418,215.671188 
	C2164.721924,223.401917 2157.034180,232.667969 2147.310059,238.632477 
	C2136.398682,245.325272 2127.941162,254.694244 2117.562500,261.814178 
	C2112.692139,265.155182 2107.886963,269.147736 2104.462646,273.868103 
	C2101.598877,277.815765 2098.130615,280.314178 2094.437012,283.143585 
	C2083.929443,291.192322 2073.807861,299.751190 2063.642578,308.239044 
	C2055.231445,315.262360 2047.663330,323.566589 2038.484619,329.334686 
	C2025.391724,337.562347 2013.963135,347.478302 2002.883789,358.039886 
	C1996.670410,363.962860 1990.958740,370.583984 1982.583008,373.827393 
	C1980.792847,374.520599 1978.915161,375.804047 1977.823853,377.344208 
	C1973.158203,383.929352 1966.509521,388.088348 1960.506958,393.178497 
	C1947.684326,404.052277 1931.800903,411.500916 1922.234009,426.170837 
	C1921.411987,427.431458 1919.471802,427.933228 1918.116211,428.880798 
	C1913.559082,432.066071 1908.816895,435.033844 1904.542725,438.565613 
	C1898.160034,443.839722 1892.169189,449.584930 1885.910400,455.013184 
	C1879.964478,460.170105 1873.935181,465.234314 1867.852539,470.229584 
	C1863.826294,473.536255 1859.686768,476.710541 1855.508667,479.824280 
	C1853.410400,481.387970 1850.843140,482.393982 1848.951416,484.151215 
	C1840.456909,492.041870 1833.367554,501.602692 1822.154907,506.216278 
	C1821.305908,506.565613 1820.764038,507.611877 1820.012573,508.256073 
	C1809.950317,516.881958 1799.916260,525.541504 1789.787354,534.088745 
	C1784.968506,538.155151 1779.799194,541.815186 1775.079346,545.988342 
	C1766.901245,553.219116 1758.975464,560.734497 1750.884766,568.065430 
	C1748.819214,569.937012 1746.831909,573.285767 1743.657715,569.346558 
	C1753.178955,548.503052 1762.753418,527.683594 1772.210327,506.811005 
	C1792.688110,461.614075 1813.369385,416.506134 1833.387207,371.105988 
	C1839.404175,357.459839 1843.506226,342.969360 1849.752808,328.366821 
	C1854.345703,326.541412 1858.235962,325.913574 1860.896729,323.763977 
	C1870.946899,315.644012 1880.461182,306.864105 1890.434814,298.645081 
	C1901.410278,289.600647 1912.789795,281.046387 1923.759521,271.995209 
	C1929.834229,266.982819 1935.327515,261.272308 1941.272827,256.094421 
	C1946.981201,251.122681 1952.817871,246.279678 1958.826172,241.677567 
	C1962.236938,239.065094 1967.201538,237.854126 1969.572754,234.622574 
	C1978.648926,222.253922 1995.234253,217.839828 2002.119995,203.348419 
	C2002.246582,203.081863 2002.628784,202.934341 2002.896362,202.737640 
	C2009.040405,198.222733 2015.343628,193.907303 2021.300293,189.157379 
	C2039.435669,174.696106 2057.437744,160.067535 2075.491211,145.503464 
	C2089.412354,134.272827 2103.374512,123.092827 2117.225342,111.776108 
	C2121.035889,108.662773 2124.467041,105.089157 2128.150635,101.815208 
	C2134.258057,96.387230 2140.272705,90.838081 2146.609131,85.687820 
	C2157.150879,77.119324 2168.155273,69.108063 2178.514160,60.330330 
	C2187.271484,52.909451 2194.215820,43.614552 2203.819092,36.881897 
	C2214.598877,29.324612 2224.460693,20.456505 2234.701172,12.133167 
	C2237.904053,9.529854 2240.429932,6.525544 2240.000000,2.000000 
	C2253.375244,2.000000 2266.750732,2.000000 2281.062988,1.999972 
z"/>
<path fill="#D9C07F" opacity="1.000000" stroke="none" 
	d="
M2239.062744,2.000000 
	C2240.429932,6.525544 2237.904053,9.529854 2234.701172,12.133167 
	C2224.460693,20.456505 2214.598877,29.324612 2203.819092,36.881897 
	C2194.215820,43.614552 2187.271484,52.909451 2178.514160,60.330330 
	C2168.155273,69.108063 2157.150879,77.119324 2146.609131,85.687820 
	C2140.272705,90.838081 2134.258057,96.387230 2128.150635,101.815208 
	C2124.467041,105.089157 2121.035889,108.662773 2117.225342,111.776108 
	C2103.374512,123.092827 2089.412354,134.272827 2075.491211,145.503464 
	C2057.437744,160.067535 2039.435669,174.696106 2021.300293,189.157379 
	C2015.343628,193.907303 2009.040405,198.222733 2002.896362,202.737640 
	C2002.628784,202.934341 2002.246582,203.081863 2002.119995,203.348419 
	C1995.234253,217.839828 1978.648926,222.253922 1969.572754,234.622574 
	C1967.201538,237.854126 1962.236938,239.065094 1958.826172,241.677567 
	C1952.817871,246.279678 1946.981201,251.122681 1941.272827,256.094421 
	C1935.327515,261.272308 1929.834229,266.982819 1923.759521,271.995209 
	C1912.789795,281.046387 1901.410278,289.600647 1890.434814,298.645081 
	C1880.461182,306.864105 1870.946899,315.644012 1860.896729,323.763977 
	C1858.235962,325.913574 1854.345703,326.541412 1850.245361,327.842407 
	C1851.809814,317.912842 1854.186035,308.017487 1856.480103,298.103058 
	C1860.486572,280.788605 1863.957275,263.388794 1865.114502,244.444305 
	C1866.050415,242.866714 1866.065430,242.377502 1865.806641,241.879791 
	C1865.898071,219.670349 1864.164062,197.672760 1857.953125,176.224106 
	C1851.723755,154.710846 1841.807983,135.024338 1828.548584,115.864174 
	C1839.122192,104.869537 1849.184204,94.700966 1860.044800,85.472000 
	C1870.110229,76.918625 1881.303467,69.702942 1891.512085,61.304966 
	C1909.640991,46.391380 1927.099731,30.648657 1945.498169,16.085817 
	C1951.024292,11.711765 1952.465576,7.980015 1950.000000,2.000000 
	C2046.041870,2.000000 2142.083740,2.000000 2239.062744,2.000000 
z"/>
<path fill="#C1A25B" opacity="1.000000" stroke="none" 
	d="
M1402.937256,2004.000000 
	C1401.997192,2003.111084 1401.994385,2002.222168 1402.463135,2000.211182 
	C1403.297974,1997.405762 1403.661133,1995.722412 1404.507690,1993.538208 
	C1410.754517,1980.053711 1416.534790,1967.077393 1422.277588,1954.084473 
	C1430.560547,1935.345093 1438.694702,1916.538086 1447.206665,1897.903564 
	C1448.589355,1894.876465 1451.594604,1892.590576 1454.544189,1890.261230 
	C1461.257568,1894.176514 1465.946777,1888.831177 1471.325684,1888.195435 
	C1490.829224,1885.890625 1508.099731,1875.344360 1527.593872,1873.033447 
	C1528.226074,1872.958618 1528.792114,1872.409912 1529.429321,1872.278931 
	C1533.283691,1871.487427 1537.164429,1870.074585 1541.008545,1870.157837 
	C1546.918091,1870.285400 1551.966919,1868.865723 1556.953735,1865.723511 
	C1559.934937,1863.844971 1563.746826,1862.157837 1567.125366,1862.265503 
	C1574.710571,1862.507080 1581.429810,1860.130615 1588.328369,1857.683960 
	C1594.262939,1855.578979 1600.320435,1853.182007 1606.494507,1852.528564 
	C1617.834106,1851.328369 1628.369385,1847.694458 1638.977295,1844.027222 
	C1642.427856,1842.834473 1645.983032,1840.839722 1649.429321,1840.960205 
	C1657.644287,1841.247192 1664.776611,1837.665894 1672.354126,1835.764404 
	C1681.630737,1833.436890 1690.660767,1829.966431 1700.024902,1828.190308 
	C1710.907349,1826.126099 1720.873413,1819.778320 1732.507080,1821.238892 
	C1733.303101,1821.338867 1734.194092,1820.245117 1735.111450,1819.886963 
	C1740.336182,1817.847900 1745.479736,1815.513916 1750.845093,1813.943359 
	C1758.791626,1811.616943 1767.069336,1810.342529 1774.888794,1807.686157 
	C1781.570312,1805.416382 1788.093384,1803.440552 1795.224243,1803.862793 
	C1796.809082,1803.956543 1798.731567,1803.637207 1800.009033,1802.779175 
	C1808.984985,1796.750000 1819.103271,1798.079224 1829.010986,1797.974731 
	C1820.993652,1815.417236 1813.049683,1832.893799 1804.944946,1850.295532 
	C1783.825684,1895.640259 1762.630981,1940.949829 1741.480957,1986.280273 
	C1738.962158,1991.678833 1736.533081,1997.119141 1734.031250,2003.270020 
	C1623.958252,2004.000000 1513.916382,2004.000000 1402.937256,2004.000000 
z"/>
<path fill="#D9C07F" opacity="1.000000" stroke="none" 
	d="
M361.062683,2.000002 
	C362.344818,2.925762 362.412201,4.258167 363.078491,4.712757 
	C368.289337,8.267877 367.722595,12.176289 365.455688,17.567297 
	C361.504822,26.963129 358.730988,36.853901 355.463776,46.537205 
	C355.251129,47.167385 355.087830,47.819542 354.818542,48.424519 
	C342.809448,75.407341 337.540985,104.833481 324.502625,131.496445 
	C321.074951,138.505890 320.117554,146.713806 317.932922,154.344788 
	C316.929016,157.851303 316.381012,161.735565 314.460510,164.691040 
	C304.446136,180.102570 301.886597,198.052765 296.557922,215.072800 
	C294.489655,221.678925 291.303070,227.926086 288.925262,234.445923 
	C283.385834,249.634903 276.348419,264.258484 273.166656,280.352295 
	C272.238708,285.045898 267.577759,289.001465 264.205048,293.868561 
	C249.700256,272.870789 235.991562,251.044388 221.449158,229.788391 
	C199.478424,197.674698 174.057663,168.376846 146.425140,139.515015 
	C148.013199,134.247971 149.658493,130.238846 151.566925,126.359138 
	C159.152969,110.937164 160.398483,93.458992 168.941971,78.004845 
	C175.676941,65.822121 177.935989,51.082417 181.629807,37.329803 
	C184.125580,28.037697 186.072479,18.695528 191.551056,10.473340 
	C193.105377,8.140643 193.223328,4.850862 194.000000,2.000001 
	C249.375122,2.000000 304.750244,2.000000 361.062683,2.000002 
z"/>
<path fill="#E1CA8C" opacity="1.000000" stroke="none" 
	d="
M193.062683,2.000001 
	C193.223328,4.850862 193.105377,8.140643 191.551056,10.473340 
	C186.072479,18.695528 184.125580,28.037697 181.629807,37.329803 
	C177.935989,51.082417 175.676941,65.822121 168.941971,78.004845 
	C160.398483,93.458992 159.152969,110.937164 151.566925,126.359138 
	C149.658493,130.238846 148.013199,134.247971 146.139465,138.893951 
	C133.975052,128.742523 122.059158,117.732956 109.833794,107.078484 
	C77.834785,79.191177 43.691998,54.097954 8.702817,30.131449 
	C7.110721,29.040915 5.192361,28.426699 2.712981,27.795315 
	C2.000000,19.368265 2.000000,10.736530 2.000000,2.000000 
	C65.375084,2.000000 128.750229,2.000000 193.062683,2.000001 
z"/>
<path fill="#E1CA8C" opacity="1.000000" stroke="none" 
	d="
M1949.062744,2.000000 
	C1952.465576,7.980015 1951.024292,11.711765 1945.498169,16.085817 
	C1927.099731,30.648657 1909.640991,46.391380 1891.512085,61.304966 
	C1881.303467,69.702942 1870.110229,76.918625 1860.044800,85.472000 
	C1849.184204,94.700966 1839.122192,104.869537 1828.383789,115.189758 
	C1798.107300,78.144676 1759.757080,50.832230 1718.260620,26.889353 
	C1718.260620,19.037027 1718.260620,11.433894 1718.130371,2.915380 
	C1794.708496,2.000000 1871.416870,2.000000 1949.062744,2.000000 
z"/>
<path fill="#C5A761" opacity="1.000000" stroke="none" 
	d="
M646.334839,295.786987 
	C653.414246,310.411835 660.819580,324.889648 667.500305,339.694397 
	C678.836060,364.815094 689.680664,390.157074 700.795471,415.377960 
	C711.778015,440.298920 722.831299,465.188751 733.883545,490.078918 
	C734.681580,491.876099 735.724182,493.564697 737.274780,496.477295 
	C740.707336,504.647217 743.487427,511.656250 746.335815,518.637451 
	C751.660645,531.688110 757.025024,544.722595 761.624939,557.930298 
	C759.288208,559.993835 757.075439,561.647034 756.221619,563.831482 
	C752.992004,572.093628 751.077087,580.979919 747.039551,588.789490 
	C741.351501,599.791382 737.824036,611.356384 734.544128,623.148071 
	C732.061218,632.074585 729.174133,640.905396 726.046143,649.627808 
	C724.718628,653.329773 721.677856,656.448059 720.521057,660.174683 
	C717.200012,670.872986 714.677612,681.818848 711.370056,692.521790 
	C709.622070,698.178284 706.920959,703.543457 704.599792,709.018799 
	C701.879700,715.435181 697.516541,721.627319 696.675842,728.272278 
	C694.772583,743.314209 688.313232,756.696960 683.695496,770.754700 
	C682.565918,774.193604 682.656799,778.230042 680.892578,781.231079 
	C671.402283,797.374939 666.946594,815.435547 660.792542,832.831299 
	C657.588257,841.888855 655.899109,851.494568 652.527466,860.478088 
	C646.057434,877.716858 638.492004,894.551453 634.233643,912.566589 
	C633.780518,914.483704 633.466675,916.612976 632.402344,918.177002 
	C626.082520,927.463501 622.979248,937.802063 621.248108,948.787292 
	C620.535767,953.307678 618.739258,957.718323 617.004517,962.004395 
	C612.781250,972.439148 608.467957,982.845947 603.794312,993.082947 
	C602.862244,995.124390 600.163940,996.359497 598.280029,997.966370 
	C586.857849,973.649963 575.398315,949.351013 564.022461,925.012939 
	C548.416504,891.625000 532.890137,858.200012 517.299194,824.805054 
	C504.940704,798.333862 492.536438,771.883911 480.781738,744.533691 
	C483.476562,739.667297 485.755493,735.786072 487.563232,731.696594 
	C491.282867,723.282410 494.930511,714.827026 498.275330,706.258911 
	C502.259735,696.052368 505.413055,685.492798 509.896362,675.522278 
	C511.977905,670.893066 513.375061,666.515198 514.232056,661.508789 
	C515.673218,653.089600 518.348938,644.850647 520.929077,636.669556 
	C522.403992,631.992920 524.996094,627.676941 526.599365,623.030884 
	C531.252991,609.544922 535.542480,595.932922 540.238098,582.462158 
	C541.644287,578.428162 544.357666,574.842285 545.699707,570.794983 
	C548.618408,561.992676 550.819946,552.952026 553.757690,544.156799 
	C555.214966,539.794006 558.092041,535.907104 559.564880,531.547546 
	C564.407349,517.214172 568.760925,502.715515 573.606628,488.383240 
	C575.270447,483.462006 577.867432,478.860077 579.973694,474.083862 
	C588.659851,454.387177 589.101379,431.830597 601.120972,413.246826 
	C602.687683,410.824524 602.954224,407.574005 603.892090,404.729919 
	C606.685303,396.259796 609.409729,387.765015 612.350586,379.346069 
	C616.952026,366.173309 621.663025,353.038208 626.419312,339.920380 
	C628.798523,333.358337 630.848267,326.593170 634.046631,320.439453 
	C636.415955,315.880981 638.410522,311.635315 638.058533,306.387726 
	C637.666504,300.542633 640.477539,296.901764 646.334839,295.786987 
z"/>
<path fill="#CDB16D" opacity="1.000000" stroke="none" 
	d="
M646.275330,295.020416 
	C640.477539,296.901764 637.666504,300.542633 638.058533,306.387726 
	C638.410522,311.635315 636.415955,315.880981 634.046631,320.439453 
	C630.848267,326.593170 628.798523,333.358337 626.419312,339.920380 
	C621.663025,353.038208 616.952026,366.173309 612.350586,379.346069 
	C609.409729,387.765015 606.685303,396.259796 603.892090,404.729919 
	C602.954224,407.574005 602.687683,410.824524 601.120972,413.246826 
	C589.101379,431.830597 588.659851,454.387177 579.973694,474.083862 
	C577.867432,478.860077 575.270447,483.462006 573.606628,488.383240 
	C568.760925,502.715515 564.407349,517.214172 559.564880,531.547546 
	C558.092041,535.907104 555.214966,539.794006 553.757690,544.156799 
	C550.819946,552.952026 548.618408,561.992676 545.699707,570.794983 
	C544.357666,574.842285 541.644287,578.428162 540.238098,582.462158 
	C535.542480,595.932922 531.252991,609.544922 526.599365,623.030884 
	C524.996094,627.676941 522.403992,631.992920 520.929077,636.669556 
	C518.348938,644.850647 515.673218,653.089600 514.232056,661.508789 
	C513.375061,666.515198 511.977905,670.893066 509.896362,675.522278 
	C505.413055,685.492798 502.259735,696.052368 498.275330,706.258911 
	C494.930511,714.827026 491.282867,723.282410 487.563232,731.696594 
	C485.755493,735.786072 483.476562,739.667297 480.722534,743.811279 
	C471.559875,726.404419 462.942657,708.896240 454.642365,691.239136 
	C439.243988,658.482300 424.045654,625.631531 408.735901,592.833008 
	C395.815247,565.152710 382.854858,537.491028 369.852142,509.109985 
	C372.067627,505.256500 375.059753,502.408234 376.491394,498.919556 
	C381.995880,485.505890 387.128357,471.934052 392.132111,458.322876 
	C394.293610,452.443298 396.240021,446.415955 397.526123,440.296417 
	C401.042786,423.563324 409.754578,408.860626 415.439667,392.990601 
	C416.648956,389.614960 416.980896,385.933655 418.056030,382.499298 
	C419.610840,377.532623 421.411774,372.639130 423.239441,367.763794 
	C423.923615,365.938751 425.199707,364.327271 425.820221,362.488281 
	C427.614410,357.170746 429.059875,351.733429 430.920380,346.440948 
	C434.514404,336.217163 438.247009,326.041016 442.024231,315.883118 
	C444.317902,309.714874 447.122284,303.719940 449.124817,297.463928 
	C451.947540,288.645691 453.828735,279.514282 456.874969,270.782745 
	C459.914917,262.069183 464.276581,253.818802 467.359070,245.117477 
	C470.674164,235.759613 473.042908,226.070862 476.083893,216.609833 
	C477.801636,211.265701 480.197357,206.142685 482.014557,200.826706 
	C486.286621,188.329285 490.153168,175.688614 494.636810,163.269440 
	C499.138123,150.801422 504.358795,138.594528 508.950256,126.157288 
	C513.639526,113.455200 517.028442,100.185280 522.707703,87.963730 
	C527.402283,77.861076 529.121643,67.211548 531.930725,56.754566 
	C532.948303,52.966728 534.938477,51.978062 539.044739,52.053417 
	C543.440063,59.856842 547.188477,67.592888 550.652527,75.454239 
	C564.701904,107.338287 578.595825,139.290939 592.679565,171.159729 
	C603.945862,196.653137 615.401855,222.062714 626.777283,247.507843 
	C632.602966,260.538940 638.497559,273.539825 644.210876,286.619965 
	C645.251343,289.002014 645.566101,291.701111 646.275330,295.020416 
z"/>
<path fill="#BB9B53" opacity="1.000000" stroke="none" 
	d="
M598.308716,998.668640 
	C600.163940,996.359497 602.862244,995.124390 603.794312,993.082947 
	C608.467957,982.845947 612.781250,972.439148 617.004517,962.004395 
	C618.739258,957.718323 620.535767,953.307678 621.248108,948.787292 
	C622.979248,937.802063 626.082520,927.463501 632.402344,918.177002 
	C633.466675,916.612976 633.780518,914.483704 634.233643,912.566589 
	C638.492004,894.551453 646.057434,877.716858 652.527466,860.478088 
	C655.899109,851.494568 657.588257,841.888855 660.792542,832.831299 
	C666.946594,815.435547 671.402283,797.374939 680.892578,781.231079 
	C682.656799,778.230042 682.565918,774.193604 683.695496,770.754700 
	C688.313232,756.696960 694.772583,743.314209 696.675842,728.272278 
	C697.516541,721.627319 701.879700,715.435181 704.599792,709.018799 
	C706.920959,703.543457 709.622070,698.178284 711.370056,692.521790 
	C714.677612,681.818848 717.200012,670.872986 720.521057,660.174683 
	C721.677856,656.448059 724.718628,653.329773 726.046143,649.627808 
	C729.174133,640.905396 732.061218,632.074585 734.544128,623.148071 
	C737.824036,611.356384 741.351501,599.791382 747.039551,588.789490 
	C751.077087,580.979919 752.992004,572.093628 756.221619,563.831482 
	C757.075439,561.647034 759.288208,559.993835 762.044800,558.486206 
	C764.659363,562.212830 766.055542,565.572937 767.560852,568.883423 
	C778.825684,593.657898 790.269043,618.352417 801.355652,643.206299 
	C818.660217,681.999634 835.777039,720.877197 852.868286,759.765259 
	C858.732544,773.108459 864.281311,786.590393 869.974182,800.008911 
	C860.146423,802.683411 858.534424,811.752014 856.384338,819.330811 
	C849.492798,843.622375 842.383118,867.778992 832.567261,891.106384 
	C828.468689,900.846619 825.489441,911.057190 821.985229,921.048340 
	C817.912537,932.660400 812.990173,944.053528 809.951782,955.929260 
	C806.222473,970.505188 799.050903,983.624512 794.244690,997.681641 
	C787.810730,1016.499451 782.008606,1035.532593 775.842224,1054.442993 
	C773.913635,1060.357422 771.791565,1066.214844 769.572021,1072.027222 
	C764.506653,1085.292358 759.294739,1098.501709 754.220520,1111.763550 
	C753.281677,1114.217041 752.700256,1116.808228 751.971069,1119.340942 
	C751.054321,1122.525269 750.883362,1126.213013 749.109009,1128.806641 
	C744.237122,1135.927856 742.213989,1143.885132 741.005859,1152.133423 
	C739.580933,1161.861450 734.783508,1170.172852 730.873291,1178.950317 
	C726.467468,1188.840576 723.227112,1199.263916 719.730530,1209.540527 
	C717.376892,1216.458252 715.582031,1223.565796 713.235596,1230.486206 
	C712.790161,1231.799927 710.930237,1232.634033 709.024292,1233.832642 
	C695.269897,1205.831299 682.253113,1177.668823 669.149658,1149.546509 
	C648.433411,1105.085938 627.679810,1060.642822 606.883362,1016.219727 
	C604.214661,1010.519226 601.194641,1004.983154 598.308716,998.668640 
z"/>
<path fill="#EBD69A" opacity="1.000000" stroke="none" 
	d="
M2157.963379,287.942505 
	C2158.426025,289.185516 2159.179688,290.400299 2159.303711,291.676208 
	C2160.058105,299.443176 2161.678467,300.876801 2168.934814,298.580566 
	C2182.839600,294.180725 2196.546143,289.143616 2210.500000,284.914917 
	C2219.670410,282.135712 2229.369385,281.000671 2238.394287,277.868317 
	C2248.010254,274.530731 2258.593262,275.109985 2267.715332,269.555176 
	C2271.083008,267.504303 2276.201416,268.577759 2280.296387,267.426331 
	C2295.601807,263.122650 2310.804199,258.452728 2326.070801,254.008087 
	C2328.889893,253.187347 2332.065186,251.762787 2334.664551,252.372192 
	C2341.283936,253.924225 2347.126221,251.809174 2353.105469,249.946732 
	C2366.597656,245.743942 2379.826172,240.286652 2393.598877,237.497650 
	C2409.885986,234.199432 2425.222412,228.257553 2441.002930,223.573242 
	C2441.950684,223.291885 2443.024414,222.621216 2443.844238,222.845428 
	C2453.383545,225.454971 2461.019287,219.468872 2469.503662,217.343719 
	C2474.612305,216.064117 2479.867676,215.344147 2484.936035,213.936249 
	C2492.555664,211.819595 2500.060791,209.293991 2507.630127,206.992691 
	C2513.245361,205.285477 2518.797852,203.212158 2524.532715,202.092880 
	C2534.887695,200.071838 2545.493652,199.890503 2555.527588,195.571701 
	C2562.125977,192.731674 2569.546875,191.121292 2576.734131,190.486359 
	C2588.298584,189.464752 2598.009277,183.469620 2608.709717,180.234207 
	C2611.816895,179.294693 2615.029297,178.701736 2618.993164,177.950592 
	C2610.048828,190.505173 2600.159180,202.949295 2590.588379,215.633713 
	C2562.690674,252.606857 2538.910889,292.168823 2517.128906,332.981659 
	C2488.168457,387.244659 2463.021240,443.343567 2437.044678,499.043823 
	C2434.514893,504.468658 2431.966064,509.884705 2428.179688,515.422729 
	C2413.061768,513.459961 2400.507568,520.105225 2387.162109,521.663025 
	C2381.041992,522.377441 2375.148193,524.971741 2369.130127,526.634399 
	C2362.822266,528.377075 2355.909912,528.083252 2350.407715,532.584656 
	C2349.244873,533.536011 2347.292480,533.610962 2345.669922,533.897888 
	C2333.924561,535.974060 2322.157959,537.933289 2310.428955,540.096252 
	C2307.855225,540.570862 2305.168457,541.313660 2302.941406,542.625000 
	C2295.826904,546.814331 2288.344727,548.508301 2280.057617,548.188599 
	C2276.294189,548.043457 2271.992188,549.107727 2268.734375,550.999878 
	C2259.149658,556.566162 2248.535645,559.171570 2238.094482,561.880676 
	C2226.691650,564.839294 2214.858154,566.124451 2203.232910,568.252258 
	C2201.302002,568.605652 2199.492188,569.583374 2197.600586,570.193298 
	C2185.339844,574.147156 2173.147949,578.341858 2160.780518,581.929321 
	C2151.922119,584.498779 2142.575928,585.539185 2133.916504,588.591980 
	C2127.483643,590.859802 2121.172852,591.540710 2114.548828,592.254333 
	C2108.143555,592.944458 2101.213867,594.520691 2095.877930,597.876038 
	C2089.646973,601.794495 2083.622070,604.144836 2076.392578,604.055298 
	C2073.767334,604.022705 2071.065430,604.327515 2068.518311,604.960327 
	C2061.150391,606.790405 2053.362793,607.857788 2046.622192,611.073669 
	C2035.773071,616.249878 2025.838989,615.339966 2015.886230,609.276367 
	C2018.731934,601.709473 2021.402222,594.863037 2024.567749,587.531494 
	C2025.972900,584.912964 2026.856079,582.767639 2027.796997,580.647888 
	C2038.309692,556.963501 2048.924805,533.324158 2059.325439,509.590698 
	C2070.388184,484.345886 2081.307373,459.037750 2092.178711,433.709747 
	C2098.976807,417.871124 2105.570068,401.944641 2112.824219,385.685303 
	C2114.347900,383.975311 2115.573486,382.756012 2116.217285,381.282349 
	C2126.299805,358.205109 2136.221436,335.057373 2146.377686,312.012848 
	C2149.966797,303.869232 2154.086182,295.959229 2157.963379,287.942505 
z"/>
<path fill="#CFB370" opacity="1.000000" stroke="none" 
	d="
M2120.769043,1173.475220 
	C2114.237305,1187.988281 2107.855225,1202.570923 2101.145996,1217.001465 
	C2080.573730,1261.249268 2059.907227,1305.453125 2039.217285,1349.645996 
	C2023.308472,1383.626099 2007.281860,1417.550903 1991.358765,1451.524170 
	C1980.513916,1474.662476 1969.756836,1497.841919 1957.649414,1521.493164 
	C1953.709717,1522.293091 1950.948730,1522.188599 1948.474854,1522.980713 
	C1934.324097,1527.511841 1920.428345,1532.969482 1906.082764,1536.725342 
	C1892.064575,1540.395630 1877.671021,1542.431152 1864.171265,1548.225952 
	C1854.463501,1552.392822 1843.364258,1550.453613 1833.380249,1554.406250 
	C1826.967896,1556.944946 1820.036865,1558.194336 1813.307861,1559.901855 
	C1810.754028,1560.549805 1808.052734,1560.643677 1805.525269,1561.364624 
	C1794.771606,1564.432129 1783.541870,1565.874268 1773.531372,1571.536865 
	C1770.881592,1573.035767 1767.100220,1572.511841 1763.846680,1572.974609 
	C1761.924683,1573.248047 1759.972168,1573.470093 1758.113037,1573.996948 
	C1744.455322,1577.867554 1730.838623,1581.885254 1717.158936,1585.675537 
	C1713.667847,1586.642944 1709.920166,1586.677734 1706.421875,1587.626343 
	C1689.448730,1592.228516 1672.518188,1596.988159 1655.578369,1601.712769 
	C1653.026489,1602.424683 1650.399536,1603.003662 1647.987793,1604.057373 
	C1635.786011,1609.388794 1621.740601,1607.485352 1609.800903,1613.844971 
	C1609.009277,1614.266846 1607.787842,1613.788574 1606.838989,1614.023315 
	C1600.770752,1615.524780 1594.643799,1616.860474 1588.697021,1618.755981 
	C1584.997681,1619.935059 1581.581543,1622.002197 1577.266968,1624.033936 
	C1575.931885,1620.049683 1574.899658,1616.969238 1573.929199,1613.144287 
	C1574.992554,1609.604004 1575.829468,1606.735596 1577.023438,1604.024536 
	C1583.179443,1590.046509 1589.485229,1576.134521 1595.629883,1562.151489 
	C1606.714966,1536.925659 1617.793701,1511.696655 1628.738403,1486.409668 
	C1635.985352,1469.665894 1642.993774,1452.818726 1650.615234,1435.547119 
	C1652.016968,1433.304321 1653.001709,1431.571167 1653.794922,1429.754395 
	C1664.288330,1405.722900 1674.739258,1381.673096 1685.232056,1357.641357 
	C1696.256226,1332.392456 1707.250122,1307.130005 1718.413452,1281.942749 
	C1720.545654,1277.132080 1723.403442,1272.643188 1726.429199,1268.485474 
	C1728.395630,1271.520386 1729.376465,1274.546143 1733.543335,1273.194702 
	C1742.020264,1270.446045 1750.559448,1267.886353 1759.096924,1265.329224 
	C1763.120728,1264.124023 1767.202637,1262.181641 1771.253418,1262.193726 
	C1779.528442,1262.218262 1786.753296,1259.148682 1794.312988,1256.609619 
	C1802.367798,1253.904175 1810.642212,1251.357300 1819.019165,1250.272949 
	C1825.023560,1249.495728 1830.629517,1248.652954 1836.209473,1246.092651 
	C1841.516113,1243.657837 1847.370117,1241.170044 1853.007446,1241.113892 
	C1857.178589,1241.072388 1860.733398,1240.654541 1864.323120,1238.926392 
	C1869.036133,1236.657593 1873.515747,1233.428833 1878.483398,1232.258301 
	C1891.028809,1229.302002 1903.776001,1227.182983 1916.473633,1224.902222 
	C1921.669556,1223.968994 1927.040894,1223.891602 1932.162476,1222.696533 
	C1939.198364,1221.054443 1945.957886,1217.943481 1953.047852,1216.896484 
	C1960.436401,1215.805054 1967.238281,1213.809570 1973.701294,1210.210327 
	C1975.412354,1209.257202 1977.377319,1208.634155 1979.302979,1208.211914 
	C1992.675903,1205.279541 2005.116821,1199.105225 2018.903809,1197.414307 
	C2026.365601,1196.499023 2033.532959,1193.269897 2040.992920,1192.223755 
	C2045.729248,1191.559448 2049.854492,1190.980957 2053.755859,1187.777832 
	C2056.072998,1185.875610 2059.888428,1184.463989 2062.764648,1184.843628 
	C2069.653564,1185.752808 2075.668701,1183.938965 2081.887939,1181.549072 
	C2087.435059,1179.417358 2093.493164,1176.256714 2098.948730,1176.875244 
	C2105.034668,1177.565308 2108.968750,1176.058472 2113.244141,1172.592407 
	C2115.678223,1170.619019 2118.680176,1169.673340 2120.769043,1173.475220 
z"/>
<path fill="#D9C07F" opacity="1.000000" stroke="none" 
	d="
M2121.271729,1172.947021 
	C2118.680176,1169.673340 2115.678223,1170.619019 2113.244141,1172.592407 
	C2108.968750,1176.058472 2105.034668,1177.565308 2098.948730,1176.875244 
	C2093.493164,1176.256714 2087.435059,1179.417358 2081.887939,1181.549072 
	C2075.668701,1183.938965 2069.653564,1185.752808 2062.764648,1184.843628 
	C2059.888428,1184.463989 2056.072998,1185.875610 2053.755859,1187.777832 
	C2049.854492,1190.980957 2045.729248,1191.559448 2040.992920,1192.223755 
	C2033.532959,1193.269897 2026.365601,1196.499023 2018.903809,1197.414307 
	C2005.116821,1199.105225 1992.675903,1205.279541 1979.302979,1208.211914 
	C1977.377319,1208.634155 1975.412354,1209.257202 1973.701294,1210.210327 
	C1967.238281,1213.809570 1960.436401,1215.805054 1953.047852,1216.896484 
	C1945.957886,1217.943481 1939.198364,1221.054443 1932.162476,1222.696533 
	C1927.040894,1223.891602 1921.669556,1223.968994 1916.473633,1224.902222 
	C1903.776001,1227.182983 1891.028809,1229.302002 1878.483398,1232.258301 
	C1873.515747,1233.428833 1869.036133,1236.657593 1864.323120,1238.926392 
	C1860.733398,1240.654541 1857.178589,1241.072388 1853.007446,1241.113892 
	C1847.370117,1241.170044 1841.516113,1243.657837 1836.209473,1246.092651 
	C1830.629517,1248.652954 1825.023560,1249.495728 1819.019165,1250.272949 
	C1810.642212,1251.357300 1802.367798,1253.904175 1794.312988,1256.609619 
	C1786.753296,1259.148682 1779.528442,1262.218262 1771.253418,1262.193726 
	C1767.202637,1262.181641 1763.120728,1264.124023 1759.096924,1265.329224 
	C1750.559448,1267.886353 1742.020264,1270.446045 1733.543335,1273.194702 
	C1729.376465,1274.546143 1728.395630,1271.520386 1726.493408,1267.735229 
	C1730.676270,1255.160278 1735.003906,1243.684814 1739.979248,1232.497192 
	C1750.642334,1208.520264 1761.856689,1184.787598 1772.440186,1160.776489 
	C1783.169434,1136.434692 1793.377441,1111.863525 1803.878784,1087.420776 
	C1809.387817,1074.597900 1815.040894,1061.837036 1820.620361,1049.044312 
	C1825.125000,1038.715942 1829.616577,1028.381836 1834.623047,1017.584045 
	C1846.062012,992.508972 1856.955200,967.883606 1867.959839,943.308105 
	C1869.705688,939.409485 1871.953613,935.735657 1874.264893,932.577515 
	C1876.463379,938.569458 1879.570312,939.612000 1885.337402,938.122314 
	C1897.109985,935.081482 1908.099609,928.475525 1920.890015,929.742615 
	C1921.514160,929.804443 1922.188843,929.499512 1922.822021,929.306702 
	C1932.561279,926.340698 1942.219482,923.062195 1952.068604,920.523926 
	C1956.730225,919.322510 1961.771362,919.658020 1966.609009,919.047363 
	C1968.831543,918.766846 1971.052979,918.073364 1973.146240,917.242981 
	C1982.001099,913.730530 1990.789795,910.050903 1999.653687,906.561768 
	C2000.812622,906.105591 2002.308472,906.162842 2003.578003,906.384583 
	C2013.073364,908.042969 2021.861694,907.375854 2029.298462,900.132202 
	C2030.748291,898.720154 2033.510010,898.535400 2035.725708,898.060913 
	C2038.294922,897.510803 2040.985229,897.487793 2043.525269,896.848389 
	C2052.417725,894.610107 2061.294189,892.297485 2070.127441,889.836304 
	C2078.484619,887.507690 2088.286377,889.263550 2094.676270,881.149292 
	C2095.326416,880.323792 2097.123047,880.257935 2098.418945,880.108337 
	C2104.990967,879.349304 2111.598389,878.851013 2118.140625,877.898254 
	C2121.004639,877.481079 2124.533203,876.993896 2126.384521,875.154297 
	C2131.176514,870.392761 2136.763428,869.875488 2142.901855,869.898621 
	C2145.822021,869.909607 2148.818359,869.181213 2151.655518,868.357971 
	C2165.541016,864.328674 2179.479492,860.573486 2193.509766,857.059875 
	C2207.956299,853.441956 2223.708740,853.696228 2236.852295,845.142944 
	C2237.547607,844.690430 2238.892090,844.720276 2239.712646,845.060669 
	C2244.425049,847.015259 2247.961914,844.686768 2251.716797,842.326782 
	C2253.612305,841.135376 2256.108154,840.066406 2258.235107,840.228027 
	C2265.407715,840.772644 2271.892090,838.623047 2278.368408,836.127686 
	C2275.133545,843.712036 2272.103027,851.391174 2268.631104,858.865356 
	C2247.673828,903.978577 2226.659180,949.065247 2205.577637,994.120483 
	C2187.584961,1032.573975 2169.479004,1070.974365 2151.418213,1109.395996 
	C2141.542236,1130.406128 2131.656006,1151.411377 2121.271729,1172.947021 
z"/>
<path fill="#E1CA8C" opacity="1.000000" stroke="none" 
	d="
M2278.906982,835.700073 
	C2271.892090,838.623047 2265.407715,840.772644 2258.235107,840.228027 
	C2256.108154,840.066406 2253.612305,841.135376 2251.716797,842.326782 
	C2247.961914,844.686768 2244.425049,847.015259 2239.712646,845.060669 
	C2238.892090,844.720276 2237.547607,844.690430 2236.852295,845.142944 
	C2223.708740,853.696228 2207.956299,853.441956 2193.509766,857.059875 
	C2179.479492,860.573486 2165.541016,864.328674 2151.655518,868.357971 
	C2148.818359,869.181213 2145.822021,869.909607 2142.901855,869.898621 
	C2136.763428,869.875488 2131.176514,870.392761 2126.384521,875.154297 
	C2124.533203,876.993896 2121.004639,877.481079 2118.140625,877.898254 
	C2111.598389,878.851013 2104.990967,879.349304 2098.418945,880.108337 
	C2097.123047,880.257935 2095.326416,880.323792 2094.676270,881.149292 
	C2088.286377,889.263550 2078.484619,887.507690 2070.127441,889.836304 
	C2061.294189,892.297485 2052.417725,894.610107 2043.525269,896.848389 
	C2040.985229,897.487793 2038.294922,897.510803 2035.725708,898.060913 
	C2033.510010,898.535400 2030.748291,898.720154 2029.298462,900.132202 
	C2021.861694,907.375854 2013.073364,908.042969 2003.578003,906.384583 
	C2002.308472,906.162842 2000.812622,906.105591 1999.653687,906.561768 
	C1990.789795,910.050903 1982.001099,913.730530 1973.146240,917.242981 
	C1971.052979,918.073364 1968.831543,918.766846 1966.609009,919.047363 
	C1961.771362,919.658020 1956.730225,919.322510 1952.068604,920.523926 
	C1942.219482,923.062195 1932.561279,926.340698 1922.822021,929.306702 
	C1922.188843,929.499512 1921.514160,929.804443 1920.890015,929.742615 
	C1908.099609,928.475525 1897.109985,935.081482 1885.337402,938.122314 
	C1879.570312,939.612000 1876.463379,938.569458 1874.383545,931.862976 
	C1877.341797,923.277649 1880.577148,916.067749 1883.590210,908.766052 
	C1888.603516,896.616882 1893.473999,884.408752 1898.949219,871.797668 
	C1900.223022,870.266479 1901.129639,869.241211 1901.655640,868.048157 
	C1913.059570,842.174316 1924.445068,816.292236 1935.783691,790.389587 
	C1946.721802,765.401855 1957.667725,740.417053 1968.480713,715.375000 
	C1973.614014,703.486694 1978.257690,691.385437 1983.469604,679.533020 
	C1988.279541,668.594849 1993.579834,657.873108 1998.614380,647.033020 
	C2004.342041,634.700989 2010.014526,622.343323 2015.710938,609.996765 
	C2025.838989,615.339966 2035.773071,616.249878 2046.622192,611.073669 
	C2053.362793,607.857788 2061.150391,606.790405 2068.518311,604.960327 
	C2071.065430,604.327515 2073.767334,604.022705 2076.392578,604.055298 
	C2083.622070,604.144836 2089.646973,601.794495 2095.877930,597.876038 
	C2101.213867,594.520691 2108.143555,592.944458 2114.548828,592.254333 
	C2121.172852,591.540710 2127.483643,590.859802 2133.916504,588.591980 
	C2142.575928,585.539185 2151.922119,584.498779 2160.780518,581.929321 
	C2173.147949,578.341858 2185.339844,574.147156 2197.600586,570.193298 
	C2199.492188,569.583374 2201.302002,568.605652 2203.232910,568.252258 
	C2214.858154,566.124451 2226.691650,564.839294 2238.094482,561.880676 
	C2248.535645,559.171570 2259.149658,556.566162 2268.734375,550.999878 
	C2271.992188,549.107727 2276.294189,548.043457 2280.057617,548.188599 
	C2288.344727,548.508301 2295.826904,546.814331 2302.941406,542.625000 
	C2305.168457,541.313660 2307.855225,540.570862 2310.428955,540.096252 
	C2322.157959,537.933289 2333.924561,535.974060 2345.669922,533.897888 
	C2347.292480,533.610962 2349.244873,533.536011 2350.407715,532.584656 
	C2355.909912,528.083252 2362.822266,528.377075 2369.130127,526.634399 
	C2375.148193,524.971741 2381.041992,522.377441 2387.162109,521.663025 
	C2400.507568,520.105225 2413.061768,513.459961 2427.639160,515.851074 
	C2421.079346,532.140991 2413.927490,548.173096 2406.527344,564.089722 
	C2385.692627,608.901001 2364.801514,653.686035 2343.845703,698.440674 
	C2328.095459,732.077576 2312.208008,765.650391 2296.385254,799.253357 
	C2290.733154,811.257202 2285.091797,823.265930 2278.906982,835.700073 
z"/>
<path fill="#C5A761" opacity="1.000000" stroke="none" 
	d="
M1573.867432,1613.888916 
	C1574.899658,1616.969238 1575.931885,1620.049683 1577.266968,1624.033936 
	C1581.581543,1622.002197 1584.997681,1619.935059 1588.697021,1618.755981 
	C1594.643799,1616.860474 1600.770752,1615.524780 1606.838989,1614.023315 
	C1607.787842,1613.788574 1609.009277,1614.266846 1609.800903,1613.844971 
	C1621.740601,1607.485352 1635.786011,1609.388794 1647.987793,1604.057373 
	C1650.399536,1603.003662 1653.026489,1602.424683 1655.578369,1601.712769 
	C1672.518188,1596.988159 1689.448730,1592.228516 1706.421875,1587.626343 
	C1709.920166,1586.677734 1713.667847,1586.642944 1717.158936,1585.675537 
	C1730.838623,1581.885254 1744.455322,1577.867554 1758.113037,1573.996948 
	C1759.972168,1573.470093 1761.924683,1573.248047 1763.846680,1572.974609 
	C1767.100220,1572.511841 1770.881592,1573.035767 1773.531372,1571.536865 
	C1783.541870,1565.874268 1794.771606,1564.432129 1805.525269,1561.364624 
	C1808.052734,1560.643677 1810.754028,1560.549805 1813.307861,1559.901855 
	C1820.036865,1558.194336 1826.967896,1556.944946 1833.380249,1554.406250 
	C1843.364258,1550.453613 1854.463501,1552.392822 1864.171265,1548.225952 
	C1877.671021,1542.431152 1892.064575,1540.395630 1906.082764,1536.725342 
	C1920.428345,1532.969482 1934.324097,1527.511841 1948.474854,1522.980713 
	C1950.948730,1522.188599 1953.709717,1522.293091 1957.152344,1521.985718 
	C1950.397461,1538.606201 1942.954102,1555.283325 1935.233887,1571.831177 
	C1917.100464,1610.699219 1898.838501,1649.507446 1880.620972,1688.336426 
	C1863.674438,1724.456543 1846.718384,1760.572144 1829.388672,1797.332275 
	C1819.103271,1798.079224 1808.984985,1796.750000 1800.009033,1802.779175 
	C1798.731567,1803.637207 1796.809082,1803.956543 1795.224243,1803.862793 
	C1788.093384,1803.440552 1781.570312,1805.416382 1774.888794,1807.686157 
	C1767.069336,1810.342529 1758.791626,1811.616943 1750.845093,1813.943359 
	C1745.479736,1815.513916 1740.336182,1817.847900 1735.111450,1819.886963 
	C1734.194092,1820.245117 1733.303101,1821.338867 1732.507080,1821.238892 
	C1720.873413,1819.778320 1710.907349,1826.126099 1700.024902,1828.190308 
	C1690.660767,1829.966431 1681.630737,1833.436890 1672.354126,1835.764404 
	C1664.776611,1837.665894 1657.644287,1841.247192 1649.429321,1840.960205 
	C1645.983032,1840.839722 1642.427856,1842.834473 1638.977295,1844.027222 
	C1628.369385,1847.694458 1617.834106,1851.328369 1606.494507,1852.528564 
	C1600.320435,1853.182007 1594.262939,1855.578979 1588.328369,1857.683960 
	C1581.429810,1860.130615 1574.710571,1862.507080 1567.125366,1862.265503 
	C1563.746826,1862.157837 1559.934937,1863.844971 1556.953735,1865.723511 
	C1551.966919,1868.865723 1546.918091,1870.285400 1541.008545,1870.157837 
	C1537.164429,1870.074585 1533.283691,1871.487427 1529.429321,1872.278931 
	C1528.792114,1872.409912 1528.226074,1872.958618 1527.593872,1873.033447 
	C1508.099731,1875.344360 1490.829224,1885.890625 1471.325684,1888.195435 
	C1465.946777,1888.831177 1461.257568,1894.176514 1454.573975,1889.451294 
	C1453.895142,1878.217651 1459.765625,1870.112427 1463.480225,1861.339600 
	C1471.906860,1841.438599 1480.973755,1821.809814 1489.667603,1802.020752 
	C1502.907349,1771.884277 1516.051392,1741.705688 1529.236206,1711.544922 
	C1540.290161,1686.258789 1551.222778,1660.918457 1562.472656,1635.719971 
	C1565.812622,1628.238403 1570.044312,1621.154785 1573.867432,1613.888916 
z"/>
<path fill="#E1CA8C" opacity="1.000000" stroke="none" 
	d="
M870.457825,800.530518 
	C864.281311,786.590393 858.732544,773.108459 852.868286,759.765259 
	C835.777039,720.877197 818.660217,681.999634 801.355652,643.206299 
	C790.269043,618.352417 778.825684,593.657898 767.560852,568.883423 
	C766.055542,565.572937 764.659363,562.212830 762.792786,558.319763 
	C757.025024,544.722595 751.660645,531.688110 746.335815,518.637451 
	C743.487427,511.656250 740.707336,504.647217 737.818237,496.905792 
	C748.218628,497.760345 758.125427,496.019287 767.473206,491.051788 
	C768.057007,490.741547 768.567627,490.001343 769.128723,489.983704 
	C781.492310,489.595184 789.658142,478.800720 801.904541,477.173889 
	C808.622620,476.281464 815.363647,471.790558 820.999451,467.488007 
	C827.866516,462.245422 835.027954,459.456177 843.511414,459.115448 
	C845.229675,459.046417 847.201416,457.667023 848.508118,456.348480 
	C853.039734,451.775696 858.636230,450.267761 864.777405,449.991974 
	C866.105286,449.932343 867.702576,450.316589 868.717651,449.718628 
	C877.535889,444.524292 887.540283,442.633331 896.947571,439.115662 
	C905.761475,435.819855 912.946594,428.749939 922.715515,427.146851 
	C924.159424,426.909882 925.476257,425.377350 926.674683,424.254913 
	C931.666809,419.579254 937.354980,416.671234 944.273987,415.740662 
	C948.145996,415.219910 952.397644,414.159821 955.501343,411.962860 
	C962.735657,406.841858 970.708740,404.173553 979.773682,402.013977 
	C990.672729,423.301605 1001.091919,445.113403 1011.337524,467.006409 
	C1024.126221,494.333557 1036.748291,521.738525 1049.484985,549.090088 
	C1066.710938,586.082520 1084.008911,623.041443 1101.214600,660.043274 
	C1110.867432,680.802429 1120.396729,701.618958 1129.540283,723.631287 
	C1123.718750,727.398254 1118.300781,729.866882 1112.969849,732.511230 
	C1107.929565,735.011353 1103.182617,738.234924 1097.952637,740.195862 
	C1083.734619,745.526855 1069.278564,750.221497 1055.035522,755.488831 
	C1051.737671,756.708374 1048.908936,759.200867 1045.871704,761.119202 
	C1043.397217,762.682068 1041.047729,765.392883 1038.447266,765.655334 
	C1018.555420,767.662354 1003.063477,780.103699 985.394958,787.318787 
	C977.218628,790.657654 968.857849,793.325623 962.134216,799.388123 
	C961.512695,799.948547 960.227661,799.834473 959.240967,799.918884 
	C950.555969,800.661499 942.447021,802.586182 936.508606,809.801514 
	C935.595337,810.911072 933.199341,812.080322 932.200928,811.632996 
	C925.497742,808.630066 920.293396,814.870728 913.957520,814.310303 
	C912.171082,814.152344 910.031311,816.271484 908.287720,817.643677 
	C901.008606,823.372620 893.389709,828.374573 884.028442,829.986145 
	C879.666138,820.341492 875.303772,810.696838 870.457825,800.530518 
z"/>
<path fill="#C5A761" opacity="1.000000" stroke="none" 
	d="
M2015.886230,609.276367 
	C2010.014526,622.343323 2004.342041,634.700989 1998.614380,647.033020 
	C1993.579834,657.873108 1988.279541,668.594849 1983.469604,679.533020 
	C1978.257690,691.385437 1973.614014,703.486694 1968.480713,715.375000 
	C1957.667725,740.417053 1946.721802,765.401855 1935.783691,790.389587 
	C1924.445068,816.292236 1913.059570,842.174316 1901.655640,868.048157 
	C1901.129639,869.241211 1900.223022,870.266479 1898.395264,871.402161 
	C1893.002197,866.245605 1889.635010,870.039795 1886.468140,872.787109 
	C1884.005615,874.923340 1882.242554,877.869385 1879.768799,879.988892 
	C1869.984619,888.372253 1860.114502,896.659546 1850.133179,904.807312 
	C1843.984863,909.826416 1837.589966,914.544250 1831.278564,919.361877 
	C1829.701538,920.565735 1827.241089,921.269348 1826.517090,922.822876 
	C1822.970459,930.433777 1815.101929,932.665710 1809.092163,937.049561 
	C1804.776367,940.197754 1800.006470,942.436218 1797.803955,947.764404 
	C1797.350586,948.860901 1795.923340,949.559143 1794.934937,950.429382 
	C1779.840210,963.721558 1763.281860,975.305786 1749.120117,989.690918 
	C1748.201172,990.624268 1746.971924,991.246704 1745.913940,992.049194 
	C1731.653442,1002.866760 1716.800049,1012.843445 1704.475830,1026.168457 
	C1697.346924,1033.876465 1688.543091,1040.061890 1680.334473,1046.737427 
	C1670.564697,1054.682495 1660.502075,1062.269531 1650.787842,1070.280273 
	C1636.720337,1081.880737 1622.844360,1093.713867 1608.900757,1105.464600 
	C1601.547363,1111.661499 1594.221191,1117.890991 1586.889038,1124.113159 
	C1584.612183,1126.045166 1582.443237,1128.115723 1580.074951,1129.926880 
	C1567.736084,1139.362915 1555.326294,1148.706421 1543.006104,1158.166870 
	C1541.447266,1159.363892 1540.327026,1161.116455 1538.904175,1162.510254 
	C1536.331787,1165.029785 1533.793091,1167.601562 1531.047363,1169.923340 
	C1523.202881,1176.556763 1515.253906,1183.066406 1507.363037,1189.645020 
	C1504.815674,1191.768677 1502.525146,1194.273560 1499.760864,1196.049316 
	C1492.785400,1200.530273 1485.759033,1204.645264 1481.307251,1212.246338 
	C1479.628174,1215.113525 1475.558960,1216.577026 1472.588257,1218.693115 
	C1469.895508,1220.611084 1467.046753,1222.352539 1464.560181,1224.509888 
	C1456.802246,1231.241455 1449.559570,1238.636841 1441.362061,1244.764771 
	C1436.802124,1248.173462 1432.016968,1252.579712 1425.334961,1251.829224 
	C1433.847534,1233.066528 1442.237061,1214.247070 1450.897217,1195.552856 
	C1471.306885,1151.495728 1491.821167,1107.487061 1512.340820,1063.480957 
	C1524.648071,1037.086670 1537.064941,1010.743591 1549.389282,984.357117 
	C1553.010010,976.605164 1556.481689,968.783630 1561.283447,960.492981 
	C1565.433105,958.587891 1568.703369,957.657471 1571.137817,955.691895 
	C1578.785522,949.517334 1584.339600,940.676086 1594.447388,937.644409 
	C1595.044189,937.465393 1595.699341,936.983948 1596.020264,936.456360 
	C1602.278809,926.167358 1612.428467,920.188477 1621.745850,913.336731 
	C1631.018066,906.518066 1638.139282,896.779968 1649.692871,892.984558 
	C1651.689697,892.328674 1653.229492,890.119263 1654.842529,888.490906 
	C1658.540649,884.757080 1661.997437,880.770508 1665.841797,877.198303 
	C1670.458130,872.908813 1675.345215,868.907471 1680.167969,864.843994 
	C1693.615112,853.513550 1706.444946,841.303894 1720.752319,831.186096 
	C1732.732666,822.713806 1741.877563,811.227722 1753.918335,803.017700 
	C1757.733276,800.416443 1761.305054,797.444153 1764.885742,794.516296 
	C1774.868042,786.354126 1784.808716,778.140869 1794.721924,769.895020 
	C1795.456055,769.284302 1795.717529,768.127686 1796.414307,767.444702 
	C1797.574707,766.307190 1798.885010,765.315857 1800.175659,764.319458 
	C1803.767578,761.546570 1807.448608,758.884827 1810.967896,756.023438 
	C1814.311401,753.305054 1817.450928,750.337341 1820.757324,747.571472 
	C1828.374023,741.199524 1836.060425,734.911133 1843.670532,728.531555 
	C1846.669189,726.017700 1849.270386,722.930969 1852.526001,720.843262 
	C1858.992188,716.696655 1865.623535,712.949646 1869.527100,705.853333 
	C1870.612061,703.880920 1872.368042,701.744934 1874.340210,700.883362 
	C1884.109741,696.615601 1891.281860,689.438477 1898.628174,681.941895 
	C1906.923218,673.477112 1918.731934,668.988708 1926.109009,659.107605 
	C1927.599243,657.111694 1930.509521,656.219910 1932.640503,654.649963 
	C1937.686890,650.932190 1943.232544,647.663330 1947.516113,643.196289 
	C1952.980835,637.497375 1958.251465,632.108093 1964.887451,627.388428 
	C1980.797974,616.072083 1995.421875,602.944458 2010.539795,590.517273 
	C2014.618896,587.164185 2018.797974,584.724243 2024.072510,588.016602 
	C2021.402222,594.863037 2018.731934,601.709473 2015.886230,609.276367 
z"/>
<path fill="#D9C07F" opacity="1.000000" stroke="none" 
	d="
M884.063965,830.741455 
	C893.389709,828.374573 901.008606,823.372620 908.287720,817.643677 
	C910.031311,816.271484 912.171082,814.152344 913.957520,814.310303 
	C920.293396,814.870728 925.497742,808.630066 932.200928,811.632996 
	C933.199341,812.080322 935.595337,810.911072 936.508606,809.801514 
	C942.447021,802.586182 950.555969,800.661499 959.240967,799.918884 
	C960.227661,799.834473 961.512695,799.948547 962.134216,799.388123 
	C968.857849,793.325623 977.218628,790.657654 985.394958,787.318787 
	C1003.063477,780.103699 1018.555420,767.662354 1038.447266,765.655334 
	C1041.047729,765.392883 1043.397217,762.682068 1045.871704,761.119202 
	C1048.908936,759.200867 1051.737671,756.708374 1055.035522,755.488831 
	C1069.278564,750.221497 1083.734619,745.526855 1097.952637,740.195862 
	C1103.182617,738.234924 1107.929565,735.011353 1112.969849,732.511230 
	C1118.300781,729.866882 1123.718750,727.398254 1129.604004,724.351685 
	C1136.684082,737.195190 1143.473145,750.439270 1149.792603,763.903748 
	C1167.838257,802.352356 1185.844971,840.820801 1203.557617,879.423340 
	C1212.234619,898.333679 1219.991699,917.665039 1228.604492,936.606018 
	C1234.902588,950.456238 1242.082642,963.902954 1248.555176,977.677307 
	C1252.844971,986.806763 1256.578735,996.197388 1260.509277,1006.643921 
	C1255.970703,1012.102539 1251.682495,1016.633423 1246.875244,1020.522888 
	C1245.456299,1021.670898 1242.465820,1020.641785 1240.377686,1021.243103 
	C1234.842896,1022.837097 1228.335693,1023.511414 1224.260132,1026.964966 
	C1220.775757,1029.917480 1217.781372,1031.902588 1213.418823,1032.602661 
	C1205.961548,1033.799316 1198.270630,1034.587158 1193.035889,1041.247559 
	C1192.293213,1042.192505 1190.770020,1042.870361 1189.529297,1043.020264 
	C1182.334839,1043.888916 1175.179932,1044.386353 1169.908325,1050.651245 
	C1168.975952,1051.759277 1165.584351,1050.973999 1163.353516,1050.778320 
	C1158.005859,1050.309082 1153.453125,1051.166992 1151.352661,1056.952759 
	C1150.059326,1060.515381 1147.516113,1062.011841 1143.692749,1062.021484 
	C1133.797607,1062.046509 1125.029663,1065.366211 1117.037476,1071.197754 
	C1115.002197,1072.682861 1112.039795,1074.002075 1109.686035,1073.742065 
	C1102.145142,1072.909180 1098.014526,1076.673462 1096.238281,1081.744751 
	C1090.927124,1083.259399 1086.757324,1083.993652 1082.967896,1085.616089 
	C1072.270996,1090.196289 1061.805298,1095.317993 1051.100586,1099.878906 
	C1044.148560,1102.840820 1036.912476,1105.006470 1029.620483,1107.121948 
	C1021.393921,1109.508423 1014.101013,1110.871826 1006.121521,1107.943237 
	C988.803772,1068.692017 971.450867,1029.456421 954.177979,990.185486 
	C935.691956,948.156555 917.338684,906.069092 898.789490,864.068176 
	C895.040833,855.580078 890.605286,847.397522 886.637512,839.002747 
	C885.516357,836.630737 884.930786,834.005737 884.063965,830.741455 
z"/>
<path fill="#CDB16D" opacity="1.000000" stroke="none" 
	d="
M1227.935425,1608.041504 
	C1226.681885,1606.101562 1225.145874,1604.287476 1224.217773,1602.202759 
	C1213.668213,1578.506470 1203.190186,1554.778320 1192.736084,1531.039795 
	C1183.620117,1510.340088 1174.566895,1489.612793 1165.471191,1468.903931 
	C1151.296143,1436.629517 1137.132812,1404.349976 1122.914185,1372.094849 
	C1117.009521,1358.699829 1110.945190,1345.375244 1105.026001,1331.986450 
	C1103.824585,1329.268921 1102.949951,1326.406616 1102.600586,1322.529297 
	C1112.178955,1318.964355 1121.172607,1316.762451 1129.958252,1313.917969 
	C1138.476685,1311.160034 1146.731689,1307.599121 1155.191895,1304.647583 
	C1166.722046,1300.625122 1178.376221,1296.956299 1189.890137,1292.889526 
	C1192.983032,1291.797241 1195.760864,1289.812622 1198.682739,1288.236328 
	C1201.013062,1286.979004 1203.222046,1284.994629 1205.692261,1284.585815 
	C1216.556641,1282.787476 1223.792236,1271.967773 1235.637695,1272.716553 
	C1236.386597,1272.763916 1237.150269,1271.474731 1238.013550,1271.001831 
	C1242.356689,1268.622192 1246.584961,1265.943359 1251.139282,1264.061035 
	C1256.900024,1261.680298 1263.017822,1260.175171 1268.830566,1257.905273 
	C1274.332764,1255.756836 1279.550903,1252.881470 1285.052612,1250.731323 
	C1293.566772,1247.403931 1302.435059,1244.912231 1310.761475,1241.189819 
	C1327.534302,1233.691406 1344.043335,1225.602783 1360.661133,1217.757568 
	C1366.978760,1230.814331 1373.345337,1243.847534 1379.600464,1256.934082 
	C1386.437500,1271.237671 1393.171509,1285.590454 1400.060059,1301.562988 
	C1400.150635,1325.485962 1400.131592,1347.767700 1400.088135,1370.981201 
	C1400.034668,1429.936035 1400.005615,1487.959106 1399.136230,1545.984131 
	C1394.171631,1546.881836 1389.925659,1547.415771 1385.950806,1548.754517 
	C1379.170288,1551.038330 1372.534790,1553.764526 1365.883545,1556.417725 
	C1354.226196,1561.067871 1342.496094,1565.561157 1331.018677,1570.624023 
	C1326.534180,1572.601929 1322.978516,1577.190430 1318.420898,1578.390259 
	C1309.678711,1580.691284 1301.016357,1582.519653 1294.510864,1589.422607 
	C1280.649292,1590.799072 1269.520996,1599.556641 1256.596436,1603.468750 
	C1253.112549,1604.523315 1249.567871,1605.468384 1246.224854,1606.876221 
	C1240.212891,1609.407837 1234.237061,1610.825195 1227.935425,1608.041504 
z"/>
<path fill="#CFB370" opacity="1.000000" stroke="none" 
	d="
M1360.510620,1217.032104 
	C1344.043335,1225.602783 1327.534302,1233.691406 1310.761475,1241.189819 
	C1302.435059,1244.912231 1293.566772,1247.403931 1285.052612,1250.731323 
	C1279.550903,1252.881470 1274.332764,1255.756836 1268.830566,1257.905273 
	C1263.017822,1260.175171 1256.900024,1261.680298 1251.139282,1264.061035 
	C1246.584961,1265.943359 1242.356689,1268.622192 1238.013550,1271.001831 
	C1237.150269,1271.474731 1236.386597,1272.763916 1235.637695,1272.716553 
	C1223.792236,1271.967773 1216.556641,1282.787476 1205.692261,1284.585815 
	C1203.222046,1284.994629 1201.013062,1286.979004 1198.682739,1288.236328 
	C1195.760864,1289.812622 1192.983032,1291.797241 1189.890137,1292.889526 
	C1178.376221,1296.956299 1166.722046,1300.625122 1155.191895,1304.647583 
	C1146.731689,1307.599121 1138.476685,1311.160034 1129.958252,1313.917969 
	C1121.172607,1316.762451 1112.178955,1318.964355 1102.542480,1321.779053 
	C1096.744629,1311.671631 1091.389526,1301.362183 1086.670898,1290.769165 
	C1072.472900,1258.896851 1058.503174,1226.922852 1044.482666,1194.971558 
	C1033.268066,1169.414917 1022.121765,1143.828369 1010.910339,1118.270264 
	C1009.574829,1115.225830 1008.020264,1112.277466 1006.344360,1108.614014 
	C1014.101013,1110.871826 1021.393921,1109.508423 1029.620483,1107.121948 
	C1036.912476,1105.006470 1044.148560,1102.840820 1051.100586,1099.878906 
	C1061.805298,1095.317993 1072.270996,1090.196289 1082.967896,1085.616089 
	C1086.757324,1083.993652 1090.927124,1083.259399 1096.238281,1081.744751 
	C1098.014526,1076.673462 1102.145142,1072.909180 1109.686035,1073.742065 
	C1112.039795,1074.002075 1115.002197,1072.682861 1117.037476,1071.197754 
	C1125.029663,1065.366211 1133.797607,1062.046509 1143.692749,1062.021484 
	C1147.516113,1062.011841 1150.059326,1060.515381 1151.352661,1056.952759 
	C1153.453125,1051.166992 1158.005859,1050.309082 1163.353516,1050.778320 
	C1165.584351,1050.973999 1168.975952,1051.759277 1169.908325,1050.651245 
	C1175.179932,1044.386353 1182.334839,1043.888916 1189.529297,1043.020264 
	C1190.770020,1042.870361 1192.293213,1042.192505 1193.035889,1041.247559 
	C1198.270630,1034.587158 1205.961548,1033.799316 1213.418823,1032.602661 
	C1217.781372,1031.902588 1220.775757,1029.917480 1224.260132,1026.964966 
	C1228.335693,1023.511414 1234.842896,1022.837097 1240.377686,1021.243103 
	C1242.465820,1020.641785 1245.456299,1021.670898 1246.875244,1020.522888 
	C1251.682495,1016.633423 1255.970703,1012.102539 1260.990356,1007.167725 
	C1263.822876,1011.522644 1265.968994,1016.604614 1268.462646,1021.509949 
	C1271.247559,1026.988647 1274.658203,1032.161499 1277.263062,1037.717529 
	C1303.868896,1094.466431 1330.370605,1151.264160 1356.880127,1208.058228 
	C1358.141357,1210.760376 1359.204590,1213.555054 1360.510620,1217.032104 
z"/>
<path fill="#CDB16D" opacity="1.000000" stroke="none" 
	d="
M2024.567749,587.531494 
	C2018.797974,584.724243 2014.618896,587.164185 2010.539795,590.517273 
	C1995.421875,602.944458 1980.797974,616.072083 1964.887451,627.388428 
	C1958.251465,632.108093 1952.980835,637.497375 1947.516113,643.196289 
	C1943.232544,647.663330 1937.686890,650.932190 1932.640503,654.649963 
	C1930.509521,656.219910 1927.599243,657.111694 1926.109009,659.107605 
	C1918.731934,668.988708 1906.923218,673.477112 1898.628174,681.941895 
	C1891.281860,689.438477 1884.109741,696.615601 1874.340210,700.883362 
	C1872.368042,701.744934 1870.612061,703.880920 1869.527100,705.853333 
	C1865.623535,712.949646 1858.992188,716.696655 1852.526001,720.843262 
	C1849.270386,722.930969 1846.669189,726.017700 1843.670532,728.531555 
	C1836.060425,734.911133 1828.374023,741.199524 1820.757324,747.571472 
	C1817.450928,750.337341 1814.311401,753.305054 1810.967896,756.023438 
	C1807.448608,758.884827 1803.767578,761.546570 1800.175659,764.319458 
	C1798.885010,765.315857 1797.574707,766.307190 1796.414307,767.444702 
	C1795.717529,768.127686 1795.456055,769.284302 1794.721924,769.895020 
	C1784.808716,778.140869 1774.868042,786.354126 1764.885742,794.516296 
	C1761.305054,797.444153 1757.733276,800.416443 1753.918335,803.017700 
	C1741.877563,811.227722 1732.732666,822.713806 1720.752319,831.186096 
	C1706.444946,841.303894 1693.615112,853.513550 1680.167969,864.843994 
	C1675.345215,868.907471 1670.458130,872.908813 1665.841797,877.198303 
	C1661.997437,880.770508 1658.540649,884.757080 1654.842529,888.490906 
	C1653.229492,890.119263 1651.689697,892.328674 1649.692871,892.984558 
	C1638.139282,896.779968 1631.018066,906.518066 1621.745850,913.336731 
	C1612.428467,920.188477 1602.278809,926.167358 1596.020264,936.456360 
	C1595.699341,936.983948 1595.044189,937.465393 1594.447388,937.644409 
	C1584.339600,940.676086 1578.785522,949.517334 1571.137817,955.691895 
	C1568.703369,957.657471 1565.433105,958.587891 1561.727539,960.007080 
	C1575.567627,928.521606 1590.219482,897.018250 1604.884888,865.521179 
	C1622.765869,827.117371 1640.658203,788.718811 1659.520752,750.358887 
	C1665.436157,752.306580 1668.949341,748.919617 1672.059570,746.426819 
	C1682.320679,738.202820 1690.912476,727.812256 1703.576538,722.754333 
	C1704.406738,722.422729 1705.031494,721.401611 1705.589233,720.589600 
	C1716.526245,704.663574 1734.272705,696.217773 1747.348755,682.576111 
	C1754.204346,675.423950 1762.167969,669.275818 1769.981201,663.118530 
	C1776.199829,658.217712 1783.322998,654.438599 1789.389893,649.376892 
	C1805.113403,636.258606 1819.430420,621.499756 1836.571655,610.006348 
	C1841.440918,606.741455 1844.956421,601.494263 1849.244629,597.311890 
	C1851.800171,594.819397 1854.552734,592.500549 1857.394165,590.336548 
	C1861.070557,587.536926 1865.124390,585.209839 1868.662109,582.255920 
	C1878.069336,574.401184 1887.078369,566.059143 1896.635132,558.396606 
	C1907.382690,549.778931 1918.831665,542.027100 1929.466064,533.279297 
	C1939.669556,524.886108 1947.964111,514.435425 1959.345947,507.134033 
	C1967.887817,501.654663 1975.021973,494.006104 1982.918579,487.487732 
	C1990.543579,481.193512 1998.560669,475.359924 2006.005005,468.864746 
	C2013.766235,462.093170 2020.796509,454.479584 2028.605835,447.768646 
	C2037.849731,439.824921 2049.766357,435.138763 2056.839355,424.458679 
	C2057.848389,422.935211 2060.128906,422.289062 2061.734619,421.118164 
	C2064.673828,418.974976 2067.688232,416.903564 2070.422119,414.516846 
	C2077.429443,408.398956 2083.950928,401.665100 2091.333008,396.054535 
	C2097.488281,391.376312 2103.007568,384.567139 2112.255615,386.057648 
	C2105.570068,401.944641 2098.976807,417.871124 2092.178711,433.709747 
	C2081.307373,459.037750 2070.388184,484.345886 2059.325439,509.590698 
	C2048.924805,533.324158 2038.309692,556.963501 2027.796997,580.647888 
	C2026.856079,582.767639 2025.972900,584.912964 2024.567749,587.531494 
z"/>
<path fill="#CFB370" opacity="1.000000" stroke="none" 
	d="
M2112.824219,385.685303 
	C2103.007568,384.567139 2097.488281,391.376312 2091.333008,396.054535 
	C2083.950928,401.665100 2077.429443,408.398956 2070.422119,414.516846 
	C2067.688232,416.903564 2064.673828,418.974976 2061.734619,421.118164 
	C2060.128906,422.289062 2057.848389,422.935211 2056.839355,424.458679 
	C2049.766357,435.138763 2037.849731,439.824921 2028.605835,447.768646 
	C2020.796509,454.479584 2013.766235,462.093170 2006.005005,468.864746 
	C1998.560669,475.359924 1990.543579,481.193512 1982.918579,487.487732 
	C1975.021973,494.006104 1967.887817,501.654663 1959.345947,507.134033 
	C1947.964111,514.435425 1939.669556,524.886108 1929.466064,533.279297 
	C1918.831665,542.027100 1907.382690,549.778931 1896.635132,558.396606 
	C1887.078369,566.059143 1878.069336,574.401184 1868.662109,582.255920 
	C1865.124390,585.209839 1861.070557,587.536926 1857.394165,590.336548 
	C1854.552734,592.500549 1851.800171,594.819397 1849.244629,597.311890 
	C1844.956421,601.494263 1841.440918,606.741455 1836.571655,610.006348 
	C1819.430420,621.499756 1805.113403,636.258606 1789.389893,649.376892 
	C1783.322998,654.438599 1776.199829,658.217712 1769.981201,663.118530 
	C1762.167969,669.275818 1754.204346,675.423950 1747.348755,682.576111 
	C1734.272705,696.217773 1716.526245,704.663574 1705.589233,720.589600 
	C1705.031494,721.401611 1704.406738,722.422729 1703.576538,722.754333 
	C1690.912476,727.812256 1682.320679,738.202820 1672.059570,746.426819 
	C1668.949341,748.919617 1665.436157,752.306580 1660.063232,749.893555 
	C1668.443237,729.853699 1677.074707,710.236023 1686.105713,690.804016 
	C1704.805542,650.567627 1723.717896,610.429993 1743.100342,569.799194 
	C1746.831909,573.285767 1748.819214,569.937012 1750.884766,568.065430 
	C1758.975464,560.734497 1766.901245,553.219116 1775.079346,545.988342 
	C1779.799194,541.815186 1784.968506,538.155151 1789.787354,534.088745 
	C1799.916260,525.541504 1809.950317,516.881958 1820.012573,508.256073 
	C1820.764038,507.611877 1821.305908,506.565613 1822.154907,506.216278 
	C1833.367554,501.602692 1840.456909,492.041870 1848.951416,484.151215 
	C1850.843140,482.393982 1853.410400,481.387970 1855.508667,479.824280 
	C1859.686768,476.710541 1863.826294,473.536255 1867.852539,470.229584 
	C1873.935181,465.234314 1879.964478,460.170105 1885.910400,455.013184 
	C1892.169189,449.584930 1898.160034,443.839722 1904.542725,438.565613 
	C1908.816895,435.033844 1913.559082,432.066071 1918.116211,428.880798 
	C1919.471802,427.933228 1921.411987,427.431458 1922.234009,426.170837 
	C1931.800903,411.500916 1947.684326,404.052277 1960.506958,393.178497 
	C1966.509521,388.088348 1973.158203,383.929352 1977.823853,377.344208 
	C1978.915161,375.804047 1980.792847,374.520599 1982.583008,373.827393 
	C1990.958740,370.583984 1996.670410,363.962860 2002.883789,358.039886 
	C2013.963135,347.478302 2025.391724,337.562347 2038.484619,329.334686 
	C2047.663330,323.566589 2055.231445,315.262360 2063.642578,308.239044 
	C2073.807861,299.751190 2083.929443,291.192322 2094.437012,283.143585 
	C2098.130615,280.314178 2101.598877,277.815765 2104.462646,273.868103 
	C2107.886963,269.147736 2112.692139,265.155182 2117.562500,261.814178 
	C2127.941162,254.694244 2136.398682,245.325272 2147.310059,238.632477 
	C2157.034180,232.667969 2164.721924,223.401917 2173.378418,215.671188 
	C2178.618896,210.990967 2180.200439,210.975388 2187.726074,215.525116 
	C2180.867676,233.200684 2173.611328,250.248657 2166.358154,267.297974 
	C2163.636719,273.694824 2160.922363,280.094818 2158.084229,287.217987 
	C2154.086182,295.959229 2149.966797,303.869232 2146.377686,312.012848 
	C2136.221436,335.057373 2126.299805,358.205109 2116.217285,381.282349 
	C2115.573486,382.756012 2114.347900,383.975311 2112.824219,385.685303 
z"/>
<path fill="#C1A25B" opacity="1.000000" stroke="none" 
	d="
M1400.112549,1370.049561 
	C1400.131592,1347.767700 1400.150635,1325.485962 1400.257568,1302.220947 
	C1404.719482,1292.822021 1409.220215,1284.468750 1413.430420,1275.971802 
	C1417.228882,1268.305786 1420.709473,1260.482300 1424.832764,1252.278809 
	C1432.016968,1252.579712 1436.802124,1248.173462 1441.362061,1244.764771 
	C1449.559570,1238.636841 1456.802246,1231.241455 1464.560181,1224.509888 
	C1467.046753,1222.352539 1469.895508,1220.611084 1472.588257,1218.693115 
	C1475.558960,1216.577026 1479.628174,1215.113525 1481.307251,1212.246338 
	C1485.759033,1204.645264 1492.785400,1200.530273 1499.760864,1196.049316 
	C1502.525146,1194.273560 1504.815674,1191.768677 1507.363037,1189.645020 
	C1515.253906,1183.066406 1523.202881,1176.556763 1531.047363,1169.923340 
	C1533.793091,1167.601562 1536.331787,1165.029785 1538.904175,1162.510254 
	C1540.327026,1161.116455 1541.447266,1159.363892 1543.006104,1158.166870 
	C1555.326294,1148.706421 1567.736084,1139.362915 1580.074951,1129.926880 
	C1582.443237,1128.115723 1584.612183,1126.045166 1586.889038,1124.113159 
	C1594.221191,1117.890991 1601.547363,1111.661499 1608.900757,1105.464600 
	C1622.844360,1093.713867 1636.720337,1081.880737 1650.787842,1070.280273 
	C1660.502075,1062.269531 1670.564697,1054.682495 1680.334473,1046.737427 
	C1688.543091,1040.061890 1697.346924,1033.876465 1704.475830,1026.168457 
	C1716.800049,1012.843445 1731.653442,1002.866760 1745.913940,992.049194 
	C1746.971924,991.246704 1748.201172,990.624268 1749.120117,989.690918 
	C1763.281860,975.305786 1779.840210,963.721558 1794.934937,950.429382 
	C1795.923340,949.559143 1797.350586,948.860901 1797.803955,947.764404 
	C1800.006470,942.436218 1804.776367,940.197754 1809.092163,937.049561 
	C1815.101929,932.665710 1822.970459,930.433777 1826.517090,922.822876 
	C1827.241089,921.269348 1829.701538,920.565735 1831.278564,919.361877 
	C1837.589966,914.544250 1843.984863,909.826416 1850.133179,904.807312 
	C1860.114502,896.659546 1869.984619,888.372253 1879.768799,879.988892 
	C1882.242554,877.869385 1884.005615,874.923340 1886.468140,872.787109 
	C1889.635010,870.039795 1893.002197,866.245605 1897.850708,871.829956 
	C1893.473999,884.408752 1888.603516,896.616882 1883.590210,908.766052 
	C1880.577148,916.067749 1877.341797,923.277649 1874.088013,931.243347 
	C1871.953613,935.735657 1869.705688,939.409485 1867.959839,943.308105 
	C1856.955200,967.883606 1846.062012,992.508972 1833.979736,1017.297485 
	C1829.384888,1015.464233 1826.515503,1016.377930 1823.909058,1019.113708 
	C1815.948975,1027.468506 1805.234375,1032.807983 1798.430542,1042.471680 
	C1797.125366,1044.325439 1795.121216,1045.733887 1793.298340,1047.168701 
	C1781.861572,1056.171265 1769.376953,1064.113647 1759.152222,1074.323120 
	C1742.891235,1090.559814 1724.058838,1103.496948 1706.726685,1118.317017 
	C1701.433105,1122.843384 1695.830688,1127.010742 1690.574585,1131.578369 
	C1680.083740,1140.695312 1670.052490,1150.369385 1659.244019,1159.084961 
	C1646.605103,1169.276489 1633.138672,1178.438477 1620.432373,1188.551025 
	C1614.272217,1193.453613 1609.072510,1199.553467 1603.344604,1205.013550 
	C1601.214966,1207.043335 1599.090454,1209.737061 1596.490723,1210.485474 
	C1589.951050,1212.368408 1585.217407,1216.671875 1581.594360,1221.679565 
	C1574.598511,1231.348755 1564.460449,1237.058716 1555.505371,1244.265747 
	C1548.038086,1250.275269 1539.968018,1255.634155 1533.082886,1262.238281 
	C1527.402344,1267.687012 1523.106445,1274.457397 1514.902954,1276.874146 
	C1512.905640,1277.462524 1511.510132,1279.951660 1509.723511,1281.428589 
	C1506.703857,1283.924683 1503.619995,1286.345581 1500.512695,1288.732422 
	C1497.632812,1290.944336 1494.462524,1292.828369 1491.815186,1295.282837 
	C1485.526001,1301.114136 1480.069824,1308.020874 1473.203857,1313.019043 
	C1455.250244,1326.088257 1438.506836,1340.545044 1421.768555,1355.070679 
	C1415.154663,1360.810303 1408.583130,1366.875977 1400.112549,1370.049561 
z"/>
<path fill="#BB9B53" opacity="1.000000" stroke="none" 
	d="
M1865.514771,242.122314 
	C1866.065430,242.377502 1866.050415,242.866714 1865.464600,243.579926 
	C1864.895630,243.318771 1864.914062,242.836227 1865.514771,242.122314 
z"/>
<path fill="#C1A25B" opacity="1.000000" stroke="none" 
	d="
M1082.375488,27.607136 
	C1081.913574,27.095018 1082.110596,26.614853 1082.864990,26.066261 
	C1083.647217,26.595615 1083.517944,27.142698 1082.375488,27.607136 
z"/>
<path fill="#C5A761" opacity="1.000000" stroke="none" 
	d="
M1227.971069,1608.791626 
	C1234.237061,1610.825195 1240.212891,1609.407837 1246.224854,1606.876221 
	C1249.567871,1605.468384 1253.112549,1604.523315 1256.596436,1603.468750 
	C1269.520996,1599.556641 1280.649292,1590.799072 1294.510864,1589.422607 
	C1301.016357,1582.519653 1309.678711,1580.691284 1318.420898,1578.390259 
	C1322.978516,1577.190430 1326.534180,1572.601929 1331.018677,1570.624023 
	C1342.496094,1565.561157 1354.226196,1561.067871 1365.883545,1556.417725 
	C1372.534790,1553.764526 1379.170288,1551.038330 1385.950806,1548.754517 
	C1389.925659,1547.415771 1394.171631,1546.881836 1399.150635,1546.923218 
	C1400.039917,1575.927734 1400.074463,1603.994995 1400.096924,1632.995605 
	C1400.058716,1674.620972 1400.032715,1715.312866 1399.199219,1756.008789 
	C1391.408691,1757.944580 1384.098999,1759.121826 1377.513794,1761.972656 
	C1365.533081,1767.159546 1354.737671,1775.143188 1341.122681,1776.365967 
	C1339.081055,1776.549316 1337.085083,1778.427734 1335.283813,1779.804565 
	C1332.919678,1781.611450 1330.962158,1783.991455 1328.493286,1785.612671 
	C1319.841187,1791.293945 1317.751099,1791.022217 1309.311279,1784.477173 
	C1307.809570,1783.312500 1305.799316,1782.803711 1304.023804,1781.992065 
	C1293.880005,1759.211182 1283.729614,1736.433105 1273.594238,1713.648438 
	C1264.943359,1694.200439 1256.239746,1674.775513 1247.691162,1655.282593 
	C1241.024780,1640.081665 1234.560669,1624.791992 1227.971069,1608.791626 
z"/>
<path fill="#C1A25B" opacity="1.000000" stroke="none" 
	d="
M1304.121338,1782.713623 
	C1305.799316,1782.803711 1307.809570,1783.312500 1309.311279,1784.477173 
	C1317.751099,1791.022217 1319.841187,1791.293945 1328.493286,1785.612671 
	C1330.962158,1783.991455 1332.919678,1781.611450 1335.283813,1779.804565 
	C1337.085083,1778.427734 1339.081055,1776.549316 1341.122681,1776.365967 
	C1354.737671,1775.143188 1365.533081,1767.159546 1377.513794,1761.972656 
	C1384.098999,1759.121826 1391.408691,1757.944580 1399.208496,1756.945557 
	C1400.016846,1829.918945 1400.008423,1901.959473 1399.228516,1973.995972 
	C1394.974487,1973.325073 1391.492188,1972.658081 1388.009766,1971.991089 
	C1377.150024,1947.730347 1366.275879,1923.475952 1355.435425,1899.206543 
	C1346.761719,1879.787720 1338.092285,1860.366943 1329.488403,1840.917236 
	C1321.020996,1821.776001 1312.638672,1802.597290 1304.121338,1782.713623 
z"/>
<path fill="#BB9B53" opacity="1.000000" stroke="none" 
	d="
M1388.111816,1972.718872 
	C1391.492188,1972.658081 1394.974487,1973.325073 1399.723755,1974.562988 
	C1400.838745,1978.574463 1400.819458,1982.027588 1400.498535,1985.452271 
	C1400.165649,1989.003784 1398.991821,1992.750977 1404.024414,1994.039062 
	C1403.661133,1995.722412 1403.297974,1997.405762 1402.464844,1999.544556 
	C1400.612427,1998.764526 1398.650146,1997.793335 1397.945435,1996.248413 
	C1394.516968,1988.732056 1391.424927,1981.062256 1388.111816,1972.718872 
z"/>
<path fill="#B49248" opacity="1.000000" stroke="none" 
	d="
M1404.507690,1993.538208 
	C1398.991821,1992.750977 1400.165649,1989.003784 1400.498535,1985.452271 
	C1400.819458,1982.027588 1400.838745,1978.574463 1400.495361,1974.566895 
	C1400.008423,1901.959473 1400.016846,1829.918945 1400.015991,1756.941650 
	C1400.032715,1715.312866 1400.058716,1674.620972 1400.787476,1632.872314 
	C1406.293091,1628.914307 1410.832397,1625.348877 1415.976562,1623.308228 
	C1420.631104,1621.461670 1423.615234,1618.529297 1426.466675,1614.729858 
	C1429.625244,1610.520874 1432.933105,1606.191162 1436.998413,1602.943848 
	C1445.437866,1596.202637 1454.640503,1590.420532 1463.125488,1583.731567 
	C1473.777222,1575.334595 1484.208862,1566.634644 1494.401978,1557.685303 
	C1509.310547,1544.595825 1526.000732,1533.651489 1539.873779,1519.293579 
	C1545.150024,1513.832886 1551.070679,1508.800781 1557.359131,1504.552856 
	C1570.028076,1495.994385 1582.202271,1486.997192 1592.073242,1475.168945 
	C1593.307739,1473.689819 1595.311035,1472.880249 1596.810059,1471.588745 
	C1601.797974,1467.291504 1606.724487,1462.922852 1611.662598,1458.567871 
	C1614.596802,1455.979980 1617.342651,1453.144165 1620.467529,1450.814697 
	C1626.013672,1446.680176 1632.725220,1443.681396 1637.190308,1438.647217 
	C1641.511353,1433.775269 1645.085815,1433.416504 1650.109131,1436.017822 
	C1642.993774,1452.818726 1635.985352,1469.665894 1628.738403,1486.409668 
	C1617.793701,1511.696655 1606.714966,1536.925659 1595.629883,1562.151489 
	C1589.485229,1576.134521 1583.179443,1590.046509 1577.023438,1604.024536 
	C1575.829468,1606.735596 1574.992554,1609.604004 1573.929199,1613.144287 
	C1570.044312,1621.154785 1565.812622,1628.238403 1562.472656,1635.719971 
	C1551.222778,1660.918457 1540.290161,1686.258789 1529.236206,1711.544922 
	C1516.051392,1741.705688 1502.907349,1771.884277 1489.667603,1802.020752 
	C1480.973755,1821.809814 1471.906860,1841.438599 1463.480225,1861.339600 
	C1459.765625,1870.112427 1453.895142,1878.217651 1453.879883,1889.152222 
	C1451.594604,1892.590576 1448.589355,1894.876465 1447.206665,1897.903564 
	C1438.694702,1916.538086 1430.560547,1935.345093 1422.277588,1954.084473 
	C1416.534790,1967.077393 1410.754517,1980.053711 1404.507690,1993.538208 
z"/>
<path fill="#BB9B53" opacity="1.000000" stroke="none" 
	d="
M1650.615112,1435.547119 
	C1645.085815,1433.416504 1641.511353,1433.775269 1637.190308,1438.647217 
	C1632.725220,1443.681396 1626.013672,1446.680176 1620.467529,1450.814697 
	C1617.342651,1453.144165 1614.596802,1455.979980 1611.662598,1458.567871 
	C1606.724487,1462.922852 1601.797974,1467.291504 1596.810059,1471.588745 
	C1595.311035,1472.880249 1593.307739,1473.689819 1592.073242,1475.168945 
	C1582.202271,1486.997192 1570.028076,1495.994385 1557.359131,1504.552856 
	C1551.070679,1508.800781 1545.150024,1513.832886 1539.873779,1519.293579 
	C1526.000732,1533.651489 1509.310547,1544.595825 1494.401978,1557.685303 
	C1484.208862,1566.634644 1473.777222,1575.334595 1463.125488,1583.731567 
	C1454.640503,1590.420532 1445.437866,1596.202637 1436.998413,1602.943848 
	C1432.933105,1606.191162 1429.625244,1610.520874 1426.466675,1614.729858 
	C1423.615234,1618.529297 1420.631104,1621.461670 1415.976562,1623.308228 
	C1410.832397,1625.348877 1406.293091,1628.914307 1400.799561,1631.938965 
	C1400.074463,1603.994995 1400.039917,1575.927734 1399.991089,1546.921387 
	C1400.005615,1487.959106 1400.034668,1429.936035 1400.088135,1370.981201 
	C1408.583130,1366.875977 1415.154663,1360.810303 1421.768555,1355.070679 
	C1438.506836,1340.545044 1455.250244,1326.088257 1473.203857,1313.019043 
	C1480.069824,1308.020874 1485.526001,1301.114136 1491.815186,1295.282837 
	C1494.462524,1292.828369 1497.632812,1290.944336 1500.512695,1288.732422 
	C1503.619995,1286.345581 1506.703857,1283.924683 1509.723511,1281.428589 
	C1511.510132,1279.951660 1512.905640,1277.462524 1514.902954,1276.874146 
	C1523.106445,1274.457397 1527.402344,1267.687012 1533.082886,1262.238281 
	C1539.968018,1255.634155 1548.038086,1250.275269 1555.505371,1244.265747 
	C1564.460449,1237.058716 1574.598511,1231.348755 1581.594360,1221.679565 
	C1585.217407,1216.671875 1589.951050,1212.368408 1596.490723,1210.485474 
	C1599.090454,1209.737061 1601.214966,1207.043335 1603.344604,1205.013550 
	C1609.072510,1199.553467 1614.272217,1193.453613 1620.432373,1188.551025 
	C1633.138672,1178.438477 1646.605103,1169.276489 1659.244019,1159.084961 
	C1670.052490,1150.369385 1680.083740,1140.695312 1690.574585,1131.578369 
	C1695.830688,1127.010742 1701.433105,1122.843384 1706.726685,1118.317017 
	C1724.058838,1103.496948 1742.891235,1090.559814 1759.152222,1074.323120 
	C1769.376953,1064.113647 1781.861572,1056.171265 1793.298340,1047.168701 
	C1795.121216,1045.733887 1797.125366,1044.325439 1798.430542,1042.471680 
	C1805.234375,1032.807983 1815.948975,1027.468506 1823.909058,1019.113708 
	C1826.515503,1016.377930 1829.384888,1015.464233 1833.470947,1017.763672 
	C1829.616577,1028.381836 1825.125000,1038.715942 1820.620361,1049.044312 
	C1815.040894,1061.837036 1809.387817,1074.597900 1803.878784,1087.420776 
	C1793.377441,1111.863525 1783.169434,1136.434692 1772.440186,1160.776489 
	C1761.856689,1184.787598 1750.642334,1208.520264 1739.979248,1232.497192 
	C1735.003906,1243.684814 1730.676270,1255.160278 1725.990723,1267.255615 
	C1723.403442,1272.643188 1720.545654,1277.132080 1718.413452,1281.942749 
	C1707.250122,1307.130005 1696.256226,1332.392456 1685.232056,1357.641357 
	C1674.739258,1381.673096 1664.288330,1405.722900 1653.794922,1429.754395 
	C1653.001709,1431.571167 1652.016968,1433.304321 1650.615112,1435.547119 
z"/>
</svg>