<?xml version="1.0" standalone="yes"?>
<svg xmlns="http://www.w3.org/2000/svg" width="1366" height="768">
<path style="fill:#010101; stroke:none;" d="M0 0L0 768L1366 768L1366 0L0 0z"/>
<path style="fill:#87cb93; stroke:none;" d="M230 235L230 236C330.7 303.944 429.981 374.082 530 443.025L617 503.025C631.043 512.705 646.027 526.946 662 533L662 439C662 410.774 662.429 383.285 653.974 356C648.938 339.746 641.172 323.929 631.411 310C622.865 297.805 613.19 286.953 602 277.156C545.333 227.543 473.97 235 404 235L230 235M704 533C719.973 526.946 734.957 512.705 749 503.025L836 443.025C936.02 374.082 1035.3 303.944 1136 236C1126.93 232.192 1111.85 235 1102 235L1026 235L915 235C888.453 235 862.023 233.708 836 239.884C793.246 250.031 754.624 277.862 731.228 315C691.208 378.53 704 461.32 704 533z"/>
</svg>
